<?xml version="1.0" encoding="utf-8"?>
<!-- Generator: Adobe Illustrator 25.4.1, SVG Export Plug-In . SVG Version: 6.00 Build 0)  -->
<svg version="1.1" id="Warstwa_1" xmlns="http://www.w3.org/2000/svg" xmlns:xlink="http://www.w3.org/1999/xlink" x="0px" y="0px"
	 viewBox="0 0 299.6 299.5" style="enable-background:new 0 0 299.6 299.5;" xml:space="preserve">
<style type="text/css">
	.st0{display:none;}
	.st1{display:inline;fill:#F18F20;}
	.st2{fill:#F18F20;}
</style>
<g class="st0">
	<path class="st1" d="M300,79.1c0-14.5-11.8-26.4-26.4-26.4h-8.8V26.9c0-14.9-12.1-27-27-27H62.1c-14.9,0-27,12.1-27,27v25.8h-8.8
		C11.8,52.7,0,64.6,0,79.1v44.1h35.2v135.6h11.7v14.8c0,14.5,11.8,26.4,26.4,26.4h11.9c14.5,0,26.4-11.8,26.4-26.4v-14.8h77v14.8
		c0,14.5,11.8,26.4,26.4,26.4h11.9c14.5,0,26.4-11.8,26.4-26.4v-14.8h11.7V123.2H300V79.1z M62.1,17.6h175.8c5.2,0,9.4,4.2,9.4,9.4
		v8.2H52.7v-8.2C52.7,21.8,56.9,17.6,62.1,17.6z M17.6,105.6V79.1c0-4.8,3.9-8.8,8.8-8.8h8.8v35.3H17.6z M247.3,223.7v17.6h-55.9
		v-35.2h-82.7v35.2H52.7v-17.6h35.4v-17.6H52.7v-33.7c32.3,4.8,64.8,7.2,97.3,7.2s65-2.4,97.3-7.2v33.7h-35.4v17.6H247.3z
		 M173.8,241.2h-47.6v-17.6h47.6V241.2z M93.9,273.6c0,4.8-3.9,8.8-8.8,8.8H73.2c-4.8,0-8.8-3.9-8.8-8.8v-14.8h29.5V273.6z
		 M235.5,273.6c0,4.8-3.9,8.8-8.8,8.8h-11.9c-4.8,0-8.8-3.9-8.8-8.8v-14.8h29.5V273.6z M247.3,154.6c-64.6,9.8-129.9,9.8-194.5,0
		v-31.4V52.7h194.5v70.5V154.6z M282.4,105.6h-17.6V70.3h8.8c4.8,0,8.8,3.9,8.8,8.8V105.6z"/>
</g>
<path class="st2" d="M297.7,2L297.7,2c-1.3-1.3-2.9-2-4.7-2l-143,0c-3.7,0-6.7,3-6.7,6.7v16L88.8,37.2c-3.6,1-5.7,4.6-4.7,8.2
	l28.4,106.1l-23.6,23.6c-3.5-4.5-8.8-7.1-14.5-7.1H18.5c-10.1,0-18.3,8.2-18.3,18.3v94.8c0,10.1,8.2,18.3,18.3,18.3h55.8
	c8,0,14.9-5.1,17.4-12.6l5.9,5.1c5.5,4.8,12.5,7.4,19.8,7.4h175.5c3.7,0,6.7-3,6.7-6.7V6.7C299.6,4.9,298.9,3.2,297.7,2z
	 M143.2,86.4V126l-8.7-32.2C137.9,92,140.9,89.4,143.2,86.4z M143.2,56.2l-3.2,0.9c-1.7,0.5-3.2,1.6-4.1,3.1
	c-0.9,1.5-1.1,3.4-0.7,5.1c2.1,7.9-2.6,16-10.4,18.1c-1.7,0.5-3.2,1.6-4.1,3.1c-0.9,1.6-1.1,3.4-0.7,5.1l22.4,82.8h-9.8l-5.8-22.9
	c-0.2-0.8-0.5-1.5-1-2.2l-27-100.9l44.5-11.9V56.2z M127.4,187.8l114.3,0c4,0,7.3,3.3,7.3,7.3c0,4-3.3,7.3-7.3,7.3h-58.6
	c-3.7,0-6.7,3-6.7,6.7c0,3.7,3,6.7,6.7,6.7h76.8c4,0,7.3,3.3,7.3,7.3c0,4-3.3,7.3-7.3,7.3h-76.8c-3.7,0-6.7,3-6.7,6.7
	c0,3.7,3,6.7,6.7,6.7h64.3c4,0,7.3,3.3,7.3,7.3s-3.3,7.3-7.3,7.3h-64.3c-3.7,0-6.7,3-6.7,6.7c0,3.7,3,6.7,6.7,6.7h44.5
	c4,0,7.3,3.3,7.3,7.3c0,4-3.3,7.3-7.3,7.3H117.4c-4.1,0-8-1.5-11-4.1l-13.7-12v-79.7l24-24l4.2,16.5
	C121.7,185.7,124.3,187.8,127.4,187.8z M248.3,278.8c0-2.5-0.4-4.9-1.3-7.3h0.5c11.4,0,20.6-9.3,20.6-20.6c0-2.9-0.6-5.7-1.7-8.3
	c8.4-2.8,14.2-10.7,14.2-19.6c0-4.4-1.3-8.5-3.9-12.1v-73.4c0-3.7-3-6.7-6.7-6.7s-6.7,3-6.7,6.7v65.1c-0.7-0.1-1.5-0.2-2.2-0.2
	c0.9-2.3,1.3-4.8,1.3-7.3c0-11.4-9.3-20.6-20.6-20.6H236c8.7-5.1,14.1-14.5,14.1-24.7c0-15.8-12.9-28.7-28.7-28.7
	s-28.7,12.9-28.7,28.7c0,10.2,5.4,19.6,14.1,24.7h-27.2v-109c10.2-2.5,18.2-10.5,20.7-20.7h42.3c2.5,10.2,10.5,18.2,20.7,20.7v17.4
	c0,3.7,3,6.7,6.7,6.7s6.7-3,6.7-6.7V59.6c0-3.7-3-6.7-6.7-6.7c-8.1,0-14.8-6.6-14.8-14.8c0-3.7-3-6.7-6.7-6.7h-54.1
	c-3.7,0-6.7,3-6.7,6.7c0,8.1-6.6,14.8-14.8,14.8c-3.7,0-6.7,3-6.7,6.7v114.9h-9.6V13.4l129.7,0v272.7H247
	C247.8,283.7,248.3,281.3,248.3,278.8z M221.4,134.4c8.4,0,15.3,6.9,15.3,15.3c0,8.4-6.9,15.3-15.3,15.3c-8.4,0-15.3-6.9-15.3-15.3
	C206.1,141.3,213,134.4,221.4,134.4z M13.6,186.4c0-2.7,2.2-4.9,4.9-4.9h21.2v66.1c0,3.7,3,6.7,6.7,6.7c3.7,0,6.7-3,6.7-6.7v-66.1
	h21.2c2.7,0,4.9,2.2,4.9,4.9l0,94.8c0,2.7-2.2,4.9-4.9,4.9H18.5c-2.7,0-4.9-2.2-4.9-4.9V186.4z"/>
</svg>
