<?xml version="1.0" encoding="utf-8"?>
<!-- Generator: Adobe Illustrator 25.4.1, SVG Export Plug-In . SVG Version: 6.00 Build 0)  -->
<svg version="1.1" id="Warstwa_1" xmlns="http://www.w3.org/2000/svg" xmlns:xlink="http://www.w3.org/1999/xlink" x="0px" y="0px"
	 viewBox="0 0 293.8 300.7" style="enable-background:new 0 0 293.8 300.7;" xml:space="preserve">
<style type="text/css">
	.st0{display:none;}
	.st1{display:inline;fill:#F18F20;}
	.st2{fill:#F18F20;}
</style>
<g class="st0">
	<path class="st1" d="M295.3,79.6c0-14.5-11.8-26.4-26.4-26.4h-8.8V27.5c0-14.9-12.1-27-27-27H57.4c-14.9,0-27,12.1-27,27v25.8h-8.8
		C7.1,53.2-4.7,65.1-4.7,79.6v44.1h35.2v135.6h11.7v14.8c0,14.5,11.8,26.4,26.4,26.4h11.9c14.5,0,26.4-11.8,26.4-26.4v-14.8h77v14.8
		c0,14.5,11.8,26.4,26.4,26.4H222c14.5,0,26.4-11.8,26.4-26.4v-14.8h11.7V123.7h35.2V79.6z M57.4,18.1h175.8c5.2,0,9.4,4.2,9.4,9.4
		v8.2H48v-8.2C48,22.3,52.2,18.1,57.4,18.1z M12.8,106.1V79.6c0-4.8,3.9-8.8,8.8-8.8h8.8v35.3H12.8z M242.5,224.2v17.6h-55.9v-35.2
		h-82.7v35.2H48v-17.6h35.4v-17.6H48v-33.7c32.3,4.8,64.8,7.2,97.3,7.2s65-2.4,97.3-7.2v33.7h-35.4v17.6H242.5z M169,241.7h-47.6
		v-17.6H169V241.7z M89.2,274.1c0,4.8-3.9,8.8-8.8,8.8H68.5c-4.8,0-8.8-3.9-8.8-8.8v-14.8h29.5V274.1z M230.8,274.1
		c0,4.8-3.9,8.8-8.8,8.8h-11.9c-4.8,0-8.8-3.9-8.8-8.8v-14.8h29.5V274.1z M242.5,155.1c-64.6,9.8-129.9,9.8-194.5,0v-31.4V53.2
		h194.5v70.5V155.1z M277.7,106.1h-17.6V70.8h8.8c4.8,0,8.8,3.9,8.8,8.8V106.1z"/>
</g>
<g>
	<path class="st2" d="M264.7,18.8h-15.6V9.3c0-5.2-4.2-9.3-9.3-9.3c-5.2,0-9.4,4.2-9.4,9.3v9.5H214V9.3c0-5.2-4.2-9.3-9.4-9.3
		s-9.4,4.2-9.4,9.3v9.5H98.6V9.3c0-5.2-4.2-9.3-9.4-9.3c-5.2,0-9.4,4.2-9.4,9.3v9.5H63.5V9.3c0-5.2-4.2-9.3-9.4-9.3
		c-5.2,0-9.4,4.2-9.4,9.3v9.5H29.1C13.1,18.8,0,31.9,0,48v223.6c0,16.1,13.1,29.1,29.1,29.1h235.6c16.1,0,29.1-13.1,29.1-29.1V48
		C293.8,31.9,280.8,18.8,264.7,18.8z M18.7,93.4h256.4v178.2c0,5.7-4.7,10.4-10.4,10.4H29.1c-5.7,0-10.4-4.7-10.4-10.4V93.4z
		 M54.1,56.4c5.2,0,9.4-4.2,9.4-9.4v-9.5h16.4V47c0,5.2,4.2,9.4,9.4,9.4c5.2,0,9.3-4.2,9.3-9.4v-9.5h96.7V47c0,5.2,4.2,9.4,9.4,9.4
		c5.2,0,9.3-4.2,9.3-9.4v-9.5h16.4V47c0,5.2,4.2,9.4,9.4,9.4s9.4-4.2,9.4-9.4v-9.5h15.6c5.7,0,10.4,4.7,10.4,10.4v26.8H18.7V48
		c0-5.7,4.7-10.4,10.4-10.4h15.6V47C44.8,52.2,49,56.4,54.1,56.4z"/>
	<path class="st2" d="M164.9,171.6c4.5,0,8.2-3.7,8.2-8.2s-3.7-8.2-8.2-8.2c-4.5,0-8.2,3.7-8.2,8.2S160.4,171.6,164.9,171.6z"/>
	<path class="st2" d="M146.9,247.4c17.7,0,34.3-6.9,46.8-19.4c12.5-12.5,19.4-29.1,19.4-46.8s-6.9-34.3-19.4-46.8
		c-12.5-12.5-29.1-19.4-46.8-19.4c0,0,0,0,0,0c-17.7,0-34.3,6.9-46.8,19.4c-12.5,12.5-19.4,29.1-19.4,46.8
		c0,17.7,6.9,34.4,19.4,46.8C112.6,240.5,129.2,247.4,146.9,247.4z M91.8,181.2c0-14.7,5.7-28.6,16.1-39
		c10.7-10.7,24.9-16.1,39-16.1s28.2,5.4,39,16.1c10.4,10.4,16.1,24.2,16.1,39c0,14.7-5.7,28.6-16.1,39c-21.5,21.5-56.4,21.5-77.9,0
		C97.6,209.8,91.8,195.9,91.8,181.2z"/>
	<path class="st2" d="M130.1,171.6c4.5,0,8.2-3.7,8.2-8.2s-3.7-8.2-8.2-8.2c-4.5,0-8.2,3.7-8.2,8.2S125.6,171.6,130.1,171.6z"/>
	<path class="st2" d="M121.5,212.6c0.5,0.2,1.1,0.3,1.6,0.3c1.7,0,3.2-1,3.9-2.6c3.4-8.1,11.7-13.3,21.3-13.3
		c9.3,0,17.6,5.2,21.1,13.3c0.4,1,1.3,1.8,2.3,2.2c1,0.4,2.2,0.4,3.2-0.1s1.8-1.3,2.2-2.3c0.4-1,0.4-2.2,0-3.2
		c-4.8-11.2-16.2-18.4-28.9-18.4c-13,0-24.4,7.3-29,18.5C118.3,209.2,119.3,211.7,121.5,212.6z"/>
</g>
</svg>
