<?xml version="1.0" encoding="utf-8"?>
<!-- Generator: Adobe Illustrator 25.4.1, SVG Export Plug-In . SVG Version: 6.00 Build 0)  -->
<svg version="1.1" id="Warstwa_1" xmlns="http://www.w3.org/2000/svg" xmlns:xlink="http://www.w3.org/1999/xlink" x="0px" y="0px"
	 viewBox="0 0 300 300" style="enable-background:new 0 0 300 300;" xml:space="preserve">
<style type="text/css">
	.st0{display:none;}
	.st1{display:inline;fill:#F18F20;}
	.st2{fill:#F18F20;}
</style>
<g class="st0">
	<path class="st1" d="M300,79.4c0-14.5-11.8-26.4-26.4-26.4h-8.8V27.2c0-14.9-12.1-27-27-27H62.1c-14.9,0-27,12.1-27,27V53h-8.8
		C11.8,53,0,64.8,0,79.4v44.1h35.2v135.6h11.7v14.8c0,14.5,11.8,26.4,26.4,26.4h11.9c14.5,0,26.4-11.8,26.4-26.4v-14.8h77v14.8
		c0,14.5,11.8,26.4,26.4,26.4h11.9c14.5,0,26.4-11.8,26.4-26.4v-14.8h11.7V123.5H300V79.4z M62.1,17.8h175.8c5.2,0,9.4,4.2,9.4,9.4
		v8.2H52.7v-8.2C52.7,22.1,56.9,17.8,62.1,17.8z M17.6,105.9V79.4c0-4.8,3.9-8.8,8.8-8.8h8.8v35.3H17.6z M247.3,223.9v17.6h-55.9
		v-35.2h-82.7v35.2H52.7v-17.6h35.4v-17.6H52.7v-33.7c32.3,4.8,64.8,7.2,97.3,7.2s65-2.4,97.3-7.2v33.7h-35.4v17.6H247.3z
		 M173.8,241.5h-47.6v-17.6h47.6V241.5z M93.9,273.9c0,4.8-3.9,8.8-8.8,8.8H73.2c-4.8,0-8.8-3.9-8.8-8.8v-14.8h29.5V273.9z
		 M235.5,273.9c0,4.8-3.9,8.8-8.8,8.8h-11.9c-4.8,0-8.8-3.9-8.8-8.8v-14.8h29.5V273.9z M247.3,154.9c-64.6,9.8-129.9,9.8-194.5,0
		v-31.4V53h194.5v70.5V154.9z M282.4,105.9h-17.6V70.6h8.8c4.8,0,8.8,3.9,8.8,8.8V105.9z"/>
</g>
<g>
	<g>
		<g>
			<path class="st2" d="M300,180.6v-61.3l-22.9-4.6c-2.9-10.4-7-20.3-12.3-29.7l13-19.5l-43.3-43.3l-19.5,13
				c-9.4-5.3-19.3-9.5-29.7-12.3L180.6,0h-61.3l-4.6,22.9c-10.4,2.9-20.3,7-29.7,12.3l-19.5-13L22.3,65.6l13,19.5
				c-5.3,9.4-9.5,19.3-12.3,29.7L0,119.4v61.3l22.9,4.6c2.9,10.4,7,20.3,12.3,29.7l-13,19.5l43.3,43.3l19.5-13
				c9.4,5.3,19.3,9.5,29.7,12.3l4.6,22.9h61.3l4.6-22.9c10.4-2.9,20.3-7,29.7-12.3l19.5,13l43.3-43.3l-13-19.5
				c5.3-9.4,9.5-19.3,12.3-29.7L300,180.6z M262.6,170.2l-1.3,5.5c-2.8,12.3-7.7,24-14.4,34.8l-3,4.8l11.2,16.8l-23,23l-16.8-11.2
				l-4.8,3c-10.8,6.7-22.5,11.6-34.8,14.4l-5.5,1.3l-4,19.8h-32.5l-4-19.8l-5.5-1.3c-12.3-2.8-24-7.7-34.8-14.4l-4.8-3l-16.8,11.2
				l-23-23l11.2-16.8l-3-4.8c-6.7-10.8-11.6-22.5-14.4-34.8l-1.3-5.5l-19.8-4v-32.5l19.8-4l1.3-5.5c2.8-12.3,7.7-24,14.4-34.8l3-4.8
				L44.9,67.8l23-23l16.8,11.2l4.8-3c10.8-6.7,22.5-11.6,34.8-14.4l5.5-1.3l4-19.8h32.5l4,19.8l5.5,1.3c12.3,2.8,24,7.7,34.8,14.4
				l4.8,3l16.8-11.2l23,23l-11.2,16.8l3,4.8c6.7,10.8,11.6,22.5,14.4,34.8l1.3,5.5l19.8,4v32.5L262.6,170.2z"/>
		</g>
	</g>
	<g>
		<g>
			<path class="st2" d="M150,53.3c-53.3,0-96.7,43.4-96.7,96.7s43.4,96.7,96.7,96.7s96.7-43.4,96.7-96.7S203.3,53.3,150,53.3z
				 M158.8,228.6v-17.7c29.8-4.3,52.7-30,52.7-60.9v-8.8h-8.8c-22.4,0-42,12-52.7,29.9c-10.8-17.9-30.4-29.9-52.7-29.9h-8.8v8.8
				c0,30.9,23,56.6,52.7,60.9v17.7c-39.5-4.4-70.3-38-70.3-78.6c0-43.6,35.5-79.1,79.1-79.1s79.1,35.5,79.1,79.1
				C229.1,190.6,198.3,224.2,158.8,228.6z M159.9,192.8c3.8-16.3,16.6-29.1,32.9-32.9C189,176.2,176.2,189,159.9,192.8z
				 M140.1,192.8c-16.3-3.8-29.1-16.6-32.9-32.9C123.5,163.7,136.3,176.5,140.1,192.8z"/>
		</g>
	</g>
	<g>
		<g>
			<rect x="141.2" y="88.5" class="st2" width="17.6" height="17.6"/>
		</g>
	</g>
	<g>
		<g>
			
				<rect x="103.9" y="103.9" transform="matrix(0.7071 -0.7071 0.7071 0.7071 -46.6888 112.7108)" class="st2" width="17.6" height="17.6"/>
		</g>
	</g>
	<g>
		<g>
			
				<rect x="178.5" y="103.9" transform="matrix(0.7071 -0.7071 0.7071 0.7071 -24.8458 165.4452)" class="st2" width="17.6" height="17.6"/>
		</g>
	</g>
</g>
</svg>
