<?xml version="1.0" encoding="utf-8"?>
<!-- Generator: Adobe Illustrator 25.4.1, SVG Export Plug-In . SVG Version: 6.00 Build 0)  -->
<svg version="1.1" id="Warstwa_1" xmlns="http://www.w3.org/2000/svg" xmlns:xlink="http://www.w3.org/1999/xlink" x="0px" y="0px"
	 viewBox="0 0 300 250.7" style="enable-background:new 0 0 300 250.7;" xml:space="preserve">
<style type="text/css">
	.st0{display:none;}
	.st1{display:inline;fill:#F18F20;}
	.st2{fill:#F18F20;}
</style>
<g class="st0">
	<path class="st1" d="M300,58.9c0-14.5-11.8-26.4-26.4-26.4h-8.8V6.8c0-14.9-12.1-27-27-27H62.1c-14.9,0-27,12.1-27,27v25.8h-8.8
		C11.8,32.6,0,44.4,0,58.9V103h35.2v135.6h11.7v14.8c0,14.5,11.8,26.4,26.4,26.4h11.9c14.5,0,26.4-11.8,26.4-26.4v-14.8h77v14.8
		c0,14.5,11.8,26.4,26.4,26.4h11.9c14.5,0,26.4-11.8,26.4-26.4v-14.8h11.7V103H300V58.9z M62.1-2.6h175.8c5.2,0,9.4,4.2,9.4,9.4V15
		H52.7V6.8C52.7,1.6,56.9-2.6,62.1-2.6z M17.6,85.5V58.9c0-4.8,3.9-8.8,8.8-8.8h8.8v35.3H17.6z M247.3,203.5v17.6h-55.9v-35.2h-82.7
		v35.2H52.7v-17.6h35.4v-17.6H52.7v-33.7c32.3,4.8,64.8,7.2,97.3,7.2s65-2.4,97.3-7.2v33.7h-35.4v17.6H247.3z M173.8,221.1h-47.6
		v-17.6h47.6V221.1z M93.9,253.5c0,4.8-3.9,8.8-8.8,8.8H73.2c-4.8,0-8.8-3.9-8.8-8.8v-14.8h29.5V253.5z M235.5,253.5
		c0,4.8-3.9,8.8-8.8,8.8h-11.9c-4.8,0-8.8-3.9-8.8-8.8v-14.8h29.5V253.5z M247.3,134.4c-64.6,9.8-129.9,9.8-194.5,0V103V32.6h194.5
		V103V134.4z M282.4,85.5h-17.6V50.1h8.8c4.8,0,8.8,3.9,8.8,8.8V85.5z"/>
</g>
<g id="XMLID_10_">
	<g>
		<path class="st2" d="M300,187.2c0-17.6-5.3-34.5-15.2-49c-7.2-10.4-16.4-19.1-27-25.5c12.6-11.9,20.4-28.7,20.4-47.4
			c0-36-29.3-65.3-65.3-65.3c-21.3,0-41.3,10.6-53.5,27.9c-3.1-0.4-6.2-0.7-9.4-0.7c-3.2,0-6.4,0.2-9.4,0.7
			C128.4,10.6,108.4,0,87.1,0c-36,0-65.3,29.3-65.3,65.3c0,18.6,7.9,35.5,20.4,47.4c-10.7,6.4-19.9,15.1-27,25.5
			C5.3,152.7,0,169.6,0,187.2v36.3h62.9v27.2h174.1v-27.2H300L300,187.2L300,187.2L300,187.2z M212.9,16.1
			c27.1,0,49.2,22.1,49.2,49.2s-22.1,49.2-49.2,49.2c-0.5,0-1,0-1.5,0c0-0.1,0.1-0.2,0.1-0.3c0.8-2.4,1.5-4.8,2.1-7.3
			c0-0.2,0.1-0.4,0.1-0.5c0.1-0.7,0.3-1.4,0.4-2c0.1-0.3,0.1-0.6,0.2-1c0.1-0.6,0.2-1.2,0.3-1.8c0.1-0.4,0.1-0.9,0.2-1.3
			c0.1-0.5,0.1-1.1,0.2-1.6c0.1-0.6,0.1-1.1,0.1-1.7c0-0.4,0.1-0.9,0.1-1.3c0-0.9,0.1-1.9,0.1-2.8c0-0.1,0-0.1,0-0.2
			c0,0,0-0.1,0-0.1c0-1,0-1.9-0.1-2.9c0-0.3,0-0.6,0-0.8c0-0.8-0.1-1.6-0.2-2.4c0-0.2,0-0.4-0.1-0.6c-2.4-23.5-17.3-43.7-38.7-53
			C185.4,22.3,198.8,16.1,212.9,16.1z M133,46.3c0.2-0.1,0.3-0.1,0.5-0.2c0.5-0.2,1-0.3,1.5-0.5c0.4-0.1,0.8-0.2,1.1-0.3
			c0.3-0.1,0.6-0.2,0.8-0.2c0.5-0.1,1-0.3,1.5-0.4c3.7-0.9,7.6-1.4,11.6-1.4c4,0,7.9,0.5,11.6,1.4c0.5,0.1,1,0.3,1.5,0.4
			c0.3,0.1,0.6,0.2,0.8,0.2c0.4,0.1,0.7,0.2,1.1,0.3c0.5,0.2,1,0.3,1.5,0.5c0.2,0.1,0.3,0.1,0.5,0.2c16.4,6.1,28.8,20.7,31.6,38.5
			c0,0.1,0,0.3,0.1,0.4c0.1,0.6,0.2,1.2,0.2,1.8c0,0.2,0,0.4,0.1,0.7c0.1,0.6,0.1,1.1,0.1,1.7c0,0.2,0,0.5,0,0.7
			c0,0.7,0.1,1.4,0.1,2.2c0,0.1,0,0.1,0,0.2c0,0,0,0.1,0,0.1c0,0.7,0,1.4-0.1,2.1c0,0.2,0,0.4,0,0.7c0,0.7-0.1,1.3-0.2,2
			c0,0.3-0.1,0.5-0.1,0.8c0,0.4-0.1,0.9-0.2,1.3c0,0.3-0.1,0.7-0.1,1c-0.1,0.5-0.2,1-0.3,1.5c-0.1,0.4-0.2,0.9-0.3,1.3
			c-0.1,0.3-0.1,0.5-0.2,0.8c-0.2,0.7-0.3,1.3-0.5,1.9c-0.1,0.3-0.1,0.5-0.2,0.8c-0.1,0.4-0.2,0.7-0.4,1.1c-0.1,0.3-0.2,0.6-0.3,0.9
			c-0.1,0.3-0.2,0.7-0.4,1c-0.2,0.6-0.4,1.1-0.7,1.7c-0.1,0.2-0.2,0.5-0.3,0.7c-0.2,0.5-0.4,0.9-0.6,1.4c0,0.1,0,0.1-0.1,0.2
			c-0.1,0.2-0.2,0.3-0.2,0.5c-0.2,0.5-0.5,1-0.7,1.4c-0.1,0.2-0.2,0.4-0.3,0.6c0,0,0,0,0,0c-0.3,0.5-0.6,1-0.9,1.5
			c-0.1,0.2-0.2,0.4-0.4,0.6c-0.3,0.5-0.7,1-1,1.5c-0.2,0.3-0.4,0.6-0.7,0.9c-0.2,0.3-0.4,0.5-0.6,0.8c-0.2,0.3-0.5,0.7-0.8,1
			c-0.2,0.2-0.3,0.4-0.5,0.7c-0.3,0.3-0.5,0.7-0.8,1c-0.2,0.2-0.4,0.4-0.5,0.6c-0.3,0.3-0.6,0.7-0.9,1c-0.2,0.2-0.4,0.4-0.5,0.6
			c-0.5,0.5-1,1-1.5,1.5c-0.3,0.3-0.6,0.6-0.9,0.9c-0.2,0.2-0.4,0.4-0.6,0.6c-0.4,0.3-0.7,0.6-1.1,0.9c-0.2,0.2-0.4,0.3-0.6,0.5
			c-0.4,0.4-0.9,0.7-1.3,1c-0.1,0.1-0.2,0.2-0.4,0.3c-8.2,6.1-18.3,9.7-29.3,9.7c-11,0-21.1-3.6-29.3-9.7c-0.1-0.1-0.2-0.2-0.4-0.3
			c-0.5-0.3-0.9-0.7-1.3-1.1c-0.2-0.2-0.4-0.3-0.6-0.5c-0.4-0.3-0.7-0.6-1.1-0.9c-0.2-0.2-0.4-0.4-0.6-0.6c-0.3-0.3-0.6-0.6-0.9-0.9
			c-0.5-0.5-1-1-1.5-1.5c-0.2-0.2-0.4-0.4-0.5-0.6c-0.3-0.3-0.6-0.7-0.9-1c-0.2-0.2-0.4-0.4-0.5-0.6c-0.3-0.3-0.6-0.7-0.8-1
			c-0.2-0.2-0.4-0.4-0.5-0.7c-0.3-0.3-0.5-0.7-0.8-1c-0.2-0.3-0.4-0.5-0.6-0.8c-0.2-0.3-0.4-0.6-0.7-0.9c-0.3-0.5-0.7-1-1-1.6
			c-0.1-0.2-0.2-0.4-0.3-0.6c-0.3-0.5-0.6-1-0.9-1.5c-0.1-0.2-0.2-0.4-0.3-0.6c-0.3-0.5-0.5-1-0.7-1.4c-0.1-0.2-0.2-0.3-0.3-0.5
			c0,0,0-0.1,0-0.1c-0.2-0.5-0.4-0.9-0.6-1.4c-0.1-0.2-0.2-0.5-0.3-0.7c-0.2-0.6-0.5-1.1-0.7-1.7c-0.1-0.3-0.2-0.6-0.3-0.9
			c-0.1-0.3-0.2-0.6-0.3-1c-0.1-0.3-0.2-0.7-0.3-1c-0.2-0.5-0.3-1-0.4-1.6c-0.1-0.4-0.2-0.7-0.3-1.1c-0.1-0.3-0.1-0.6-0.2-0.9
			c-0.1-0.4-0.2-0.7-0.2-1.1c-0.1-0.6-0.2-1.1-0.3-1.7c0-0.3-0.1-0.6-0.1-0.9c-0.1-0.5-0.1-0.9-0.2-1.4c0-0.2-0.1-0.5-0.1-0.7
			c-0.1-0.7-0.1-1.4-0.2-2c0-0.2,0-0.4,0-0.6c0-0.7-0.1-1.5-0.1-2.2c0-0.8,0-1.6,0.1-2.4c0-0.2,0-0.4,0-0.6c0-0.6,0.1-1.2,0.1-1.8
			c0-0.2,0-0.4,0.1-0.6c0.1-0.6,0.1-1.3,0.2-1.9c0-0.1,0-0.2,0.1-0.4C104.2,67,116.6,52.4,133,46.3z M37.9,65.3
			c0-27.1,22.1-49.2,49.2-49.2c14.1,0,27.5,6.2,36.7,16.5c-21.4,9.3-36.3,29.5-38.7,53c0,0.2,0,0.3,0,0.5c-0.1,0.8-0.1,1.7-0.2,2.5
			c0,0.3,0,0.5,0,0.8c0,1-0.1,2-0.1,3c0,1,0,2.1,0.1,3.1c0,0.4,0.1,0.8,0.1,1.2c0,0.6,0.1,1.2,0.1,1.8c0,0.5,0.1,1,0.2,1.6
			c0.1,0.5,0.1,0.9,0.2,1.4c0.1,0.6,0.2,1.2,0.3,1.8c0.1,0.3,0.1,0.7,0.2,1c0.1,0.7,0.2,1.3,0.4,2c0,0.2,0.1,0.4,0.1,0.6
			c0.5,2.4,1.2,4.8,2,7.1c0.1,0.1,0.1,0.3,0.1,0.4c-0.5,0-1,0-1.5,0C60,114.4,37.9,92.4,37.9,65.3z M76.4,167.9
			c-0.2,0.3-0.3,0.6-0.5,0.8c-0.4,0.6-0.7,1.2-1.1,1.8c-0.2,0.3-0.4,0.7-0.6,1c-0.3,0.6-0.6,1.1-0.9,1.7c-0.2,0.4-0.4,0.7-0.6,1.1
			c-0.3,0.6-0.6,1.1-0.9,1.7c-0.2,0.4-0.4,0.7-0.5,1.1c-0.3,0.6-0.6,1.2-0.8,1.8c-0.1,0.3-0.3,0.7-0.4,1c-0.3,0.7-0.6,1.4-0.9,2.2
			c-0.1,0.2-0.2,0.4-0.3,0.6c-0.4,0.9-0.7,1.9-1.1,2.9c-0.1,0.2-0.1,0.4-0.2,0.7c-0.3,0.7-0.5,1.5-0.7,2.2c-0.1,0.3-0.2,0.7-0.3,1
			c-0.2,0.6-0.4,1.3-0.6,1.9c-0.1,0.4-0.2,0.8-0.3,1.1c-0.2,0.6-0.3,1.2-0.5,1.8c-0.1,0.4-0.2,0.8-0.3,1.2c-0.1,0.6-0.3,1.2-0.4,1.9
			c-0.1,0.4-0.2,0.8-0.2,1.1c-0.1,0.7-0.2,1.4-0.4,2.1c-0.1,0.3-0.1,0.6-0.2,1c-0.1,1-0.3,2-0.4,3c0,0,0,0,0,0
			c-0.1,0.9-0.2,1.8-0.3,2.8H16.1v-20.2c0-27.6,15.9-52.4,40.7-64.1c9.1,4.8,19.3,7.5,30.3,7.5c3.2,0,6.3-0.2,9.5-0.7
			c0.5,0.7,1,1.4,1.5,2.1c0.2,0.2,0.4,0.5,0.5,0.7c0.5,0.7,1,1.3,1.6,1.9c0.2,0.3,0.4,0.5,0.7,0.8c0.5,0.6,1,1.1,1.5,1.7
			c0.3,0.3,0.5,0.6,0.8,0.9c0.5,0.5,1,1,1.4,1.4c0.2,0.2,0.4,0.4,0.5,0.5c-0.7,0.4-1.4,0.9-2.1,1.3c-0.1,0.1-0.2,0.1-0.3,0.2
			c-0.7,0.4-1.4,0.9-2,1.4c-0.2,0.2-0.5,0.3-0.7,0.5c-0.6,0.4-1.2,0.9-1.8,1.3c-0.2,0.1-0.4,0.3-0.6,0.4c-0.7,0.6-1.5,1.1-2.2,1.7
			c-0.2,0.1-0.3,0.3-0.5,0.4c-0.6,0.5-1.2,1-1.7,1.5c-0.2,0.2-0.4,0.4-0.7,0.6c-0.6,0.5-1.1,1-1.7,1.5c-0.1,0.1-0.3,0.3-0.4,0.4
			c-0.7,0.6-1.4,1.3-2,2c-0.2,0.2-0.3,0.3-0.5,0.5c-0.5,0.5-1,1-1.5,1.6c-0.2,0.2-0.4,0.4-0.6,0.6c-0.6,0.6-1.1,1.2-1.6,1.9
			c-0.1,0.1-0.2,0.2-0.3,0.3c-0.6,0.7-1.2,1.5-1.8,2.2c-0.2,0.2-0.3,0.4-0.5,0.6c-0.4,0.6-0.9,1.1-1.3,1.7c-0.2,0.2-0.3,0.4-0.5,0.7
			c-0.6,0.8-1.1,1.6-1.7,2.3C77.6,166.2,77,167.1,76.4,167.9z M79,234.6v-11.1v-9.1c0-0.9,0-1.8,0-2.7c0-0.3,0-0.6,0-0.9
			c0-0.6,0.1-1.2,0.1-1.8c0-0.4,0.1-0.7,0.1-1.1c0-0.5,0.1-1,0.1-1.6c0-0.4,0.1-0.8,0.1-1.1c0.1-0.5,0.1-1,0.2-1.5
			c0.1-0.4,0.1-0.8,0.2-1.2c0.1-0.5,0.2-0.9,0.2-1.4c0.1-0.4,0.2-0.8,0.2-1.2c0.1-0.5,0.2-0.9,0.3-1.4c0.1-0.4,0.2-0.8,0.3-1.2
			c0.1-0.4,0.2-0.9,0.3-1.3c0.1-0.4,0.2-0.8,0.3-1.2c0.1-0.4,0.2-0.9,0.4-1.3c0.1-0.4,0.3-0.8,0.4-1.2c0.1-0.4,0.3-0.8,0.4-1.3
			c0.1-0.4,0.3-0.8,0.4-1.2c0.2-0.4,0.3-0.8,0.5-1.2c0.2-0.4,0.3-0.8,0.5-1.2c0.2-0.4,0.3-0.8,0.5-1.2c0.2-0.4,0.3-0.8,0.5-1.2
			c0.2-0.4,0.4-0.8,0.5-1.2c0.2-0.4,0.4-0.8,0.6-1.1c0.2-0.4,0.4-0.8,0.6-1.2c0.2-0.4,0.4-0.7,0.6-1.1c0.2-0.4,0.4-0.8,0.6-1.1
			c0.2-0.4,0.4-0.7,0.6-1.1c0.2-0.4,0.4-0.7,0.7-1.1c0.2-0.4,0.5-0.7,0.7-1.1c0.2-0.4,0.5-0.7,0.7-1.1c0.2-0.4,0.5-0.7,0.7-1.1
			c0.2-0.4,0.5-0.7,0.7-1c0.2-0.3,0.5-0.7,0.8-1c0.3-0.3,0.5-0.7,0.8-1c0.3-0.3,0.5-0.7,0.8-1c0.3-0.3,0.5-0.7,0.8-1
			c0.3-0.3,0.6-0.7,0.8-1c0.3-0.3,0.6-0.6,0.8-1c0.3-0.3,0.6-0.6,0.9-0.9c0.3-0.3,0.6-0.6,0.9-0.9c0.3-0.3,0.6-0.6,0.9-0.9
			c0.3-0.3,0.6-0.6,0.9-0.9c0.3-0.3,0.6-0.6,0.9-0.9c0.3-0.3,0.6-0.6,1-0.9c0.3-0.3,0.6-0.6,1-0.9c0.3-0.3,0.7-0.6,1-0.8
			c0.3-0.3,0.7-0.5,1-0.8c0.3-0.3,0.7-0.5,1-0.8c0.3-0.3,0.7-0.5,1-0.8c0.4-0.3,0.7-0.5,1.1-0.8c0.3-0.3,0.7-0.5,1.1-0.7
			c0.4-0.3,0.7-0.5,1.1-0.7c0.4-0.2,0.7-0.5,1.1-0.7c0.4-0.2,0.8-0.5,1.1-0.7c0.4-0.2,0.7-0.4,1.1-0.7c0.4-0.2,0.8-0.4,1.2-0.7
			c0.4-0.2,0.8-0.4,1.1-0.6c0.4-0.2,0.8-0.4,1.2-0.6c0.4-0.2,0.8-0.4,1.2-0.6c0.3-0.1,0.6-0.3,0.9-0.4c9.1,4.8,19.3,7.5,30.3,7.5
			c10.9,0,21.2-2.7,30.3-7.5c0.3,0.1,0.6,0.3,0.9,0.4c0.4,0.2,0.8,0.4,1.2,0.6c0.4,0.2,0.8,0.4,1.2,0.6c0.4,0.2,0.8,0.4,1.1,0.6
			c0.4,0.2,0.8,0.4,1.2,0.7c0.4,0.2,0.8,0.4,1.1,0.7c0.4,0.2,0.7,0.5,1.1,0.7c0.4,0.2,0.7,0.5,1.1,0.7c0.4,0.2,0.7,0.5,1.1,0.7
			c0.4,0.2,0.7,0.5,1.1,0.7c0.4,0.3,0.7,0.5,1.1,0.8c0.3,0.3,0.7,0.5,1,0.8c0.3,0.3,0.7,0.5,1,0.8c0.3,0.3,0.7,0.5,1,0.8
			c0.3,0.3,0.7,0.6,1,0.8c0.3,0.3,0.7,0.6,1,0.9c0.3,0.3,0.6,0.6,0.9,0.9c0.3,0.3,0.6,0.6,0.9,0.9c0.3,0.3,0.6,0.6,0.9,0.9
			c0.3,0.3,0.6,0.6,0.9,0.9c0.3,0.3,0.6,0.6,0.9,0.9c0.3,0.3,0.6,0.6,0.9,1c0.3,0.3,0.6,0.6,0.8,1c0.3,0.3,0.6,0.7,0.8,1
			c0.3,0.3,0.5,0.7,0.8,1c0.3,0.3,0.5,0.7,0.8,1c0.3,0.3,0.5,0.7,0.8,1c0.3,0.3,0.5,0.7,0.8,1c0.2,0.3,0.5,0.7,0.7,1
			c0.2,0.4,0.5,0.7,0.7,1.1c0.2,0.4,0.5,0.7,0.7,1.1c0.2,0.4,0.5,0.7,0.7,1.1c0.2,0.4,0.4,0.7,0.7,1.1c0.2,0.4,0.4,0.7,0.6,1.1
			c0.2,0.4,0.4,0.7,0.6,1.1c0.2,0.4,0.4,0.7,0.6,1.1c0.2,0.4,0.4,0.8,0.6,1.2c0.2,0.4,0.4,0.8,0.6,1.1c0.2,0.4,0.4,0.8,0.5,1.2
			c0.2,0.4,0.4,0.8,0.5,1.2c0.2,0.4,0.3,0.8,0.5,1.2c0.2,0.4,0.3,0.8,0.5,1.2c0.2,0.4,0.3,0.8,0.5,1.2c0.1,0.4,0.3,0.8,0.4,1.2
			c0.1,0.4,0.3,0.8,0.4,1.3c0.1,0.4,0.3,0.8,0.4,1.2c0.1,0.4,0.2,0.9,0.4,1.3c0.1,0.4,0.2,0.8,0.3,1.2c0.1,0.4,0.2,0.9,0.3,1.3
			c0.1,0.4,0.2,0.8,0.3,1.2c0.1,0.5,0.2,0.9,0.3,1.4c0.1,0.4,0.2,0.8,0.2,1.2c0.1,0.5,0.2,0.9,0.2,1.4c0.1,0.4,0.1,0.8,0.2,1.2
			c0.1,0.5,0.1,1,0.2,1.5c0,0.4,0.1,0.8,0.1,1.1c0.1,0.5,0.1,1,0.1,1.6c0,0.4,0.1,0.7,0.1,1.1c0,0.6,0.1,1.2,0.1,1.8
			c0,0.3,0,0.6,0,0.9c0,0.9,0,1.8,0,2.7v9.1v11.1L79,234.6L79,234.6z M236.8,207.4c-0.2-2-0.4-3.9-0.7-5.8c0-0.3-0.1-0.6-0.1-0.9
			c-0.1-0.7-0.2-1.4-0.4-2.1c-0.1-0.4-0.1-0.7-0.2-1.1c-0.1-0.6-0.3-1.3-0.4-1.9c-0.1-0.4-0.2-0.8-0.3-1.1c-0.1-0.6-0.3-1.2-0.5-1.9
			c-0.1-0.4-0.2-0.7-0.3-1.1c-0.2-0.6-0.4-1.3-0.6-1.9c-0.1-0.3-0.2-0.7-0.3-1c-0.2-0.8-0.5-1.5-0.7-2.3c-0.1-0.2-0.1-0.4-0.2-0.6
			c-0.3-1-0.7-1.9-1.1-2.9c-0.1-0.2-0.2-0.4-0.3-0.6c-0.3-0.7-0.6-1.5-0.9-2.2c-0.1-0.3-0.3-0.6-0.4-1c-0.3-0.6-0.6-1.2-0.8-1.8
			c-0.2-0.4-0.3-0.7-0.5-1.1c-0.3-0.6-0.6-1.1-0.9-1.7c-0.2-0.4-0.4-0.7-0.6-1.1c-0.3-0.6-0.6-1.1-0.9-1.7c-0.2-0.3-0.4-0.7-0.6-1
			c-0.4-0.6-0.7-1.2-1.1-1.8c-0.2-0.3-0.3-0.6-0.5-0.8c-0.6-0.9-1.1-1.7-1.7-2.6c-0.5-0.8-1.1-1.6-1.7-2.3c-0.2-0.2-0.3-0.4-0.5-0.7
			c-0.4-0.6-0.9-1.2-1.3-1.7c-0.2-0.2-0.3-0.4-0.5-0.6c-0.6-0.7-1.2-1.5-1.8-2.2c-0.1-0.1-0.2-0.2-0.2-0.3c-0.5-0.6-1.1-1.3-1.7-1.9
			c-0.2-0.2-0.4-0.4-0.6-0.6c-0.5-0.5-1-1.1-1.5-1.6c-0.2-0.2-0.3-0.3-0.5-0.5c-0.7-0.7-1.3-1.3-2-2c-0.1-0.1-0.3-0.3-0.4-0.4
			c-0.6-0.5-1.1-1-1.7-1.5c-0.2-0.2-0.4-0.4-0.7-0.6c-0.6-0.5-1.1-1-1.7-1.5c-0.2-0.1-0.3-0.3-0.5-0.4c-0.7-0.6-1.5-1.2-2.2-1.7
			c-0.2-0.1-0.4-0.3-0.6-0.4c-0.6-0.4-1.2-0.9-1.8-1.3c-0.2-0.2-0.5-0.3-0.7-0.5c-0.7-0.5-1.3-0.9-2-1.4c-0.1-0.1-0.2-0.2-0.4-0.2
			c-0.7-0.4-1.4-0.9-2.1-1.3c0.2-0.2,0.3-0.4,0.5-0.5c0.5-0.5,1-1,1.5-1.5c0.3-0.3,0.5-0.6,0.8-0.8c0.5-0.6,1-1.1,1.5-1.7
			c0.2-0.2,0.4-0.5,0.6-0.7c0.5-0.6,1.1-1.3,1.6-2c0.2-0.2,0.3-0.4,0.5-0.6c0.5-0.7,1-1.4,1.5-2.1c3.1,0.5,6.3,0.7,9.5,0.7
			c10.9,0,21.2-2.7,30.3-7.5c24.8,11.8,40.7,36.5,40.7,64.1v20.2H236.8z"/>
	</g>
</g>
</svg>
