<?xml version="1.0" encoding="utf-8"?>
<!-- Generator: Adobe Illustrator 25.4.1, SVG Export Plug-In . SVG Version: 6.00 Build 0)  -->
<svg version="1.1" id="Warstwa_1" xmlns="http://www.w3.org/2000/svg" xmlns:xlink="http://www.w3.org/1999/xlink" x="0px" y="0px"
	 viewBox="0 0 300 300.5" style="enable-background:new 0 0 300 300.5;" xml:space="preserve">
<style type="text/css">
	.st0{display:none;}
	.st1{display:inline;fill:#F18F20;}
	.st2{fill:#F18F20;}
</style>
<g class="st0">
	<path class="st1" d="M300,79.6c0-14.5-11.8-26.4-26.4-26.4h-8.8V27.5c0-14.9-12.1-27-27-27H62.1c-14.9,0-27,12.1-27,27v25.8h-8.8
		C11.8,53.3,0,65.1,0,79.6v44.1h35.2v135.6h11.7v14.8c0,14.5,11.8,26.4,26.4,26.4h11.9c14.5,0,26.4-11.8,26.4-26.4v-14.8h77v14.8
		c0,14.5,11.8,26.4,26.4,26.4h11.9c14.5,0,26.4-11.8,26.4-26.4v-14.8h11.7V123.7H300V79.6z M62.1,18.1h175.8c5.2,0,9.4,4.2,9.4,9.4
		v8.2H52.7v-8.2C52.7,22.3,56.9,18.1,62.1,18.1z M17.6,106.2V79.6c0-4.8,3.9-8.8,8.8-8.8h8.8v35.3H17.6z M247.3,224.2v17.6h-55.9
		v-35.2h-82.7v35.2H52.7v-17.6h35.4v-17.6H52.7v-33.7c32.3,4.8,64.8,7.2,97.3,7.2s65-2.4,97.3-7.2v33.7h-35.4v17.6H247.3z
		 M173.8,241.8h-47.6v-17.6h47.6V241.8z M93.9,274.2c0,4.8-3.9,8.8-8.8,8.8H73.2c-4.8,0-8.8-3.9-8.8-8.8v-14.8h29.5V274.2z
		 M235.5,274.2c0,4.8-3.9,8.8-8.8,8.8h-11.9c-4.8,0-8.8-3.9-8.8-8.8v-14.8h29.5V274.2z M247.3,155.2c-64.6,9.8-129.9,9.8-194.5,0
		v-31.4V53.3h194.5v70.5V155.2z M282.4,106.2h-17.6V70.8h8.8c4.8,0,8.8,3.9,8.8,8.8V106.2z"/>
</g>
<path class="st2" d="M150,213.8c-47.8,0-86.7,38.9-86.7,86.7h23.4c0-13.2,4.1-25.5,11-35.7l27.3,27.3c-0.9,2.6-1.4,5.5-1.4,8.4h52.7
	c0-2.9-0.5-5.8-1.4-8.4l27.3-27.3c7,10.2,11,22.4,11,35.7h23.4C236.7,252.7,197.8,213.8,150,213.8z M141.6,275.5l-27.3-27.3
	c10.2-7,22.4-11,35.7-11c13.2,0,25.5,4.1,35.7,11l-27.3,27.3c-2.6-0.9-5.5-1.4-8.4-1.4S144.2,274.7,141.6,275.5L141.6,275.5z
	 M256.1,194.5c-16.3-16.3-35.8-28.4-57-35.8c22.7-15.7,37.7-41.8,37.7-71.5c0-47.8-38.9-86.7-86.7-86.7S63.3,39.4,63.3,87.3
	c0,29.6,14.9,55.8,37.7,71.5c-21.2,7.3-40.7,19.4-57,35.8C15.6,222.8,0,260.5,0,300.5h23.4C23.4,230.7,80.2,174,150,174
	s126.6,56.8,126.6,126.6H300C300,260.5,284.4,222.8,256.1,194.5L256.1,194.5z M86.7,87.3C86.7,52.4,115.1,24,150,24
	s63.3,28.4,63.3,63.3s-28.4,63.3-63.3,63.3S86.7,122.1,86.7,87.3L86.7,87.3z"/>
</svg>
