<?xml version="1.0" encoding="utf-8"?>
<!-- Generator: Adobe Illustrator 25.4.1, SVG Export Plug-In . SVG Version: 6.00 Build 0)  -->
<svg version="1.1" id="Warstwa_1" xmlns="http://www.w3.org/2000/svg" xmlns:xlink="http://www.w3.org/1999/xlink" x="0px" y="0px"
	 viewBox="0 0 300 300" style="enable-background:new 0 0 300 300;" xml:space="preserve">
<style type="text/css">
	.st0{display:none;}
	.st1{display:inline;fill:#F18F20;}
	.st2{fill:#F18F20;}
</style>
<g class="st0">
	<path class="st1" d="M300,79.1c0-14.5-11.8-26.4-26.4-26.4h-8.8V27c0-14.9-12.1-27-27-27H62.1c-14.9,0-27,12.1-27,27v25.8h-8.8
		C11.8,52.7,0,64.6,0,79.1v44.1h35.2v135.6h11.7v14.8c0,14.5,11.8,26.4,26.4,26.4h11.9c14.5,0,26.4-11.8,26.4-26.4v-14.8h77v14.8
		c0,14.5,11.8,26.4,26.4,26.4h11.9c14.5,0,26.4-11.8,26.4-26.4v-14.8h11.7V123.2H300V79.1z M62.1,17.6h175.8c5.2,0,9.4,4.2,9.4,9.4
		v8.2H52.7V27C52.7,21.8,56.9,17.6,62.1,17.6z M17.6,105.6V79.1c0-4.8,3.9-8.8,8.8-8.8h8.8v35.3H17.6z M247.3,223.7v17.6h-55.9
		v-35.2h-82.7v35.2H52.7v-17.6h35.4v-17.6H52.7v-33.7c32.3,4.8,64.8,7.2,97.3,7.2s65-2.4,97.3-7.2v33.7h-35.4v17.6H247.3z
		 M173.8,241.2h-47.6v-17.6h47.6V241.2z M93.9,273.6c0,4.8-3.9,8.8-8.8,8.8H73.2c-4.8,0-8.8-3.9-8.8-8.8v-14.8h29.5V273.6z
		 M235.5,273.6c0,4.8-3.9,8.8-8.8,8.8h-11.9c-4.8,0-8.8-3.9-8.8-8.8v-14.8h29.5V273.6z M247.3,154.6c-64.6,9.8-129.9,9.8-194.5,0
		v-31.4V52.7h194.5v70.5V154.6z M282.4,105.6h-17.6V70.3h8.8c4.8,0,8.8,3.9,8.8,8.8V105.6z"/>
</g>
<g>
	<path class="st2" d="M298.3,135.2L298.3,135.2c4.9-26-1-53.8-16.5-78.3c-15.6-24.7-39-42.8-65.9-51.1c-30.8-9.7-63.5-7-92,7.8
		C95.4,28.4,74.3,53.6,64.6,84.3c-10.1,31.2-6.4,66.9,9.8,95.5c5.7,10.1,6.7,22.1,2.7,32.9L44.9,300l146.2,0l4.6-24.5l22.2,7
		c14,4.4,29-3.4,33.5-17.4l10.1-32l37.3-1.4l-7.3-74.7C291.8,155.7,295.7,143.4,298.3,135.2z M175.1,280.8l-102.7,0L95,219.4
		c5.9-16,4.5-33.9-4-48.9c-13.6-24-16.7-54-8.2-80.3c8.2-25.9,25.9-47,49.9-59.5c24-12.4,51.5-14.8,77.5-6.5
		c22.5,6.9,42.2,22.2,55.3,43c12.6,19.9,17.7,43.2,14,63.9l-7.6,24.1l5.7,58.3l-30.4,1.1l-14.2,44.8c-0.6,1.9-1.9,3.5-3.7,4.4
		c-1.8,0.9-3.8,1.1-5.7,0.5l-42.9-13.6L175.1,280.8z"/>
	<path class="st2" d="M149.2,89.4c-7.7-2.4-15.8-1.7-23,2c-7.1,3.7-12.4,10-14.9,17.6l-6.5,20.5c-5.5,17,0.4,36.7,14.2,47.9
		c4.2,3.4,9.2,5.2,14.4,5.2c2.5,0,5-0.4,7.5-1.2c7.6-2.5,13.6-8.4,15.3-15.1l0.2-0.8l-0.8-0.2c-17.4-5.7-17.3-5.7-17.6-5
		c-0.9,1.7-2,2.7-3.2,3c-1.1,0.3-2.5,0-3.8-0.8c-7.9-6.3-11.2-17.5-8-27.2l6.5-20.6c0.8-2.6,2.7-4.9,5.3-6.2
		c2.7-1.4,5.9-1.7,8.4-0.9c2.8,0.9,5.1,2.8,6.4,5.4c1.3,2.6,1.6,5.6,0.7,8.3l-0.3,0.8l18.3,5.8l0.3-0.8c2.4-7.7,1.7-15.8-2-23
		C163.1,97.1,156.8,91.9,149.2,89.4z"/>
	<polygon class="st2" points="48.6,262.7 51,243.7 36.5,241.9 41.8,229 2.4,224 0,243.1 14.5,244.9 9.2,257.8 	"/>
	<polygon class="st2" points="21.9,202.9 53.7,226.6 65.2,211.2 53.5,202.5 64.4,193.9 32.5,170.2 21.1,185.6 32.8,194.3 	"/>
</g>
</svg>
