<?xml version="1.0" encoding="utf-8"?>
<!-- Generator: Adobe Illustrator 25.4.1, SVG Export Plug-In . SVG Version: 6.00 Build 0)  -->
<svg version="1.1" id="Warstwa_1" xmlns="http://www.w3.org/2000/svg" xmlns:xlink="http://www.w3.org/1999/xlink" x="0px" y="0px"
	 viewBox="0 0 300 258" style="enable-background:new 0 0 300 258;" xml:space="preserve">
<style type="text/css">
	.st0{display:none;}
	.st1{display:inline;fill:#F18F20;}
	.st2{fill:#F18F20;}
</style>
<g class="st0">
	<path class="st1" d="M300,66.3c0-14.5-11.8-26.4-26.4-26.4h-8.8V14.1c0-14.9-12.1-27-27-27H62.1c-14.9,0-27,12.1-27,27v25.8h-8.8
		C11.8,39.9,0,51.8,0,66.3v44.1h35.2V246h11.7v14.8c0,14.5,11.8,26.4,26.4,26.4h11.9c14.5,0,26.4-11.8,26.4-26.4V246h77v14.8
		c0,14.5,11.8,26.4,26.4,26.4h11.9c14.5,0,26.4-11.8,26.4-26.4V246h11.7V110.4H300V66.3z M62.1,4.8h175.8c5.2,0,9.4,4.2,9.4,9.4v8.2
		H52.7v-8.2C52.7,9,56.9,4.8,62.1,4.8z M17.6,92.8V66.3c0-4.8,3.9-8.8,8.8-8.8h8.8v35.3H17.6z M247.3,210.9v17.6h-55.9v-35.2h-82.7
		v35.2H52.7v-17.6h35.4v-17.6H52.7v-33.7c32.3,4.8,64.8,7.2,97.3,7.2s65-2.4,97.3-7.2v33.7h-35.4v17.6H247.3z M173.8,228.4h-47.6
		v-17.6h47.6V228.4z M93.9,260.8c0,4.8-3.9,8.8-8.8,8.8H73.2c-4.8,0-8.8-3.9-8.8-8.8V246h29.5V260.8z M235.5,260.8
		c0,4.8-3.9,8.8-8.8,8.8h-11.9c-4.8,0-8.8-3.9-8.8-8.8V246h29.5V260.8z M247.3,141.8c-64.6,9.8-129.9,9.8-194.5,0v-31.4V39.9h194.5
		v70.5V141.8z M282.4,92.8h-17.6V57.5h8.8c4.8,0,8.8,3.9,8.8,8.8V92.8z"/>
</g>
<g>
	<path class="st2" d="M299.6,145.9L243.1,4c-1.3-3.3-5-4.9-8.3-3.6L5.8,91.7c-1,0.4-1.8,1.1-2.5,1.9c-2,1.1-3.3,3.2-3.3,5.5v152.6
		c0,3.5,2.9,6.4,6.4,6.4h246.5c3.5,0,6.4-2.9,6.4-6.4v-83L296,154C299.2,152.8,300.8,149.1,299.6,145.9z M253.1,92.7l-12.3-31
		c-0.1-0.3-0.3-0.5-0.5-0.7c-0.7-3-3.6-5.1-6.6-4.8c-11.7,1.1-23.1-3.8-30.3-13.1c-2-2.4-5.4-3-8.1-1.5c-0.3,0-0.5,0.1-0.8,0.2
		l-120,47.8c-1.5,0.6-2.7,1.7-3.4,3.1H37.6l196.1-78.1l51.7,129.9L259.3,155V99.1C259.3,95.7,256.6,92.9,253.1,92.7z M196.6,54.7
		c8.7,9,20.9,14.3,33.4,14.4l9.4,23.7H101L196.6,54.7z M12.7,245.3V105.4h233.8v139.9H12.7z"/>
	<path class="st2" d="M235.8,151.8c0-0.3-0.1-0.6-0.2-0.8c0.4-3-1.4-6-4.4-6.9c-11.3-3.3-20-12.1-23.3-23.4c-0.9-3-3.9-4.8-7-4.4
		c-0.3-0.1-0.5-0.1-0.9-0.2l-140.9,0c-0.3,0-0.6,0.1-0.8,0.2c-3-0.4-6,1.4-6.9,4.4C48,132,39.3,140.8,28,144.1
		c-3,0.9-4.8,3.9-4.4,6.9c-0.1,0.3-0.1,0.6-0.2,0.9l0,47c0,0.3,0.1,0.5,0.1,0.8c-0.5,3.1,1.4,6.1,4.4,7l0,0
		c11.3,3.3,20,12.1,23.4,23.3c0.8,2.7,3.3,4.5,6.1,4.5c0.3,0,0.6-0.1,0.9-0.1c0.2,0.1,0.5,0.1,0.8,0.1l140.9,0
		c0.2,0,0.4-0.1,0.7-0.1c0.4,0.1,0.9,0.1,1.3,0.1c2.7,0,5.1-1.8,5.8-4.6c3.3-11.3,12.1-20,23.4-23.4c3-0.9,4.8-3.9,4.4-6.9
		c0.1-0.3,0.1-0.6,0.2-0.9L235.8,151.8z M61.9,221.8c-4.8-11.6-14.1-20.9-25.7-25.7v-41.5c11.6-4.8,20.9-14.1,25.7-25.7h135.4
		c4.8,11.6,14.1,20.9,25.7,25.7v41.5c-11.6,4.8-20.9,14.1-25.7,25.7H61.9z"/>
	<path class="st2" d="M129.6,139.7c-19.7,0-35.7,16-35.7,35.7c0,19.7,16,35.7,35.7,35.7h0c19.7,0,35.7-16,35.7-35.7
		C165.3,155.7,149.3,139.7,129.6,139.7z M152.6,175.4c0,12.7-10.3,23-23,23s-23-10.3-23-23c0-12.7,10.3-23,23-23
		S152.6,162.7,152.6,175.4z"/>
	<path class="st2" d="M65.1,166.1c-5.1,0-9.3,4.2-9.3,9.3s4.2,9.3,9.3,9.3c5.1,0,9.3-4.2,9.3-9.3S70.2,166.1,65.1,166.1z
		 M67.5,175.4c0,1.3-1.1,2.4-2.4,2.4c-1.3,0-2.4-1.1-2.4-2.4c0-1.3,1.1-2.4,2.4-2.4C66.4,172.9,67.5,174,67.5,175.4z"/>
	<path class="st2" d="M194.2,166.1c-5.1,0-9.3,4.2-9.3,9.3s4.2,9.3,9.3,9.3s9.3-4.2,9.3-9.3S199.3,166.1,194.2,166.1z M196.6,175.4
		c0,1.3-1.1,2.4-2.4,2.4s-2.4-1.1-2.4-2.4c0-1.3,1.1-2.4,2.4-2.4S196.6,174,196.6,175.4z"/>
</g>
</svg>
