<?xml version="1.0" encoding="utf-8"?>
<!-- Generator: Adobe Illustrator 25.4.1, SVG Export Plug-In . SVG Version: 6.00 Build 0)  -->
<svg version="1.1" id="Warstwa_1" xmlns="http://www.w3.org/2000/svg" xmlns:xlink="http://www.w3.org/1999/xlink" x="0px" y="0px"
	 viewBox="0 0 300 300" style="enable-background:new 0 0 300 300;" xml:space="preserve">
<style type="text/css">
	.st0{fill:#F18F20;}
</style>
<g>
	<path class="st0" d="M300,79.1c0-14.5-11.8-26.4-26.4-26.4h-8.8V27c0-14.9-12.1-27-27-27H62.1c-14.9,0-27,12.1-27,27v25.8h-8.8
		C11.8,52.7,0,64.6,0,79.1v44.1h35.2v135.6h11.7v14.8c0,14.5,11.8,26.4,26.4,26.4h11.9c14.5,0,26.4-11.8,26.4-26.4v-14.8h77v14.8
		c0,14.5,11.8,26.4,26.4,26.4h11.9c14.5,0,26.4-11.8,26.4-26.4v-14.8h11.7V123.2H300V79.1z M62.1,17.6h175.8c5.2,0,9.4,4.2,9.4,9.4
		v8.2H52.7V27C52.7,21.8,56.9,17.6,62.1,17.6z M17.6,105.6V79.1c0-4.8,3.9-8.8,8.8-8.8h8.8v35.3H17.6z M247.3,223.7v17.6h-55.9
		v-35.2h-82.7v35.2H52.7v-17.6h35.4v-17.6H52.7v-33.7c32.3,4.8,64.8,7.2,97.3,7.2s65-2.4,97.3-7.2v33.7h-35.4v17.6H247.3z
		 M173.8,241.2h-47.6v-17.6h47.6V241.2z M93.9,273.6c0,4.8-3.9,8.8-8.8,8.8H73.2c-4.8,0-8.8-3.9-8.8-8.8v-14.8h29.5V273.6z
		 M235.5,273.6c0,4.8-3.9,8.8-8.8,8.8h-11.9c-4.8,0-8.8-3.9-8.8-8.8v-14.8h29.5V273.6z M247.3,154.6c-64.6,9.8-129.9,9.8-194.5,0
		v-31.4V52.7h194.5v70.5V154.6z M282.4,105.6h-17.6V70.3h8.8c4.8,0,8.8,3.9,8.8,8.8V105.6z"/>
</g>
</svg>
