<?xml version="1.0" encoding="utf-8"?>
<!-- Generator: Adobe Illustrator 25.4.1, SVG Export Plug-In . SVG Version: 6.00 Build 0)  -->
<svg version="1.1" id="Warstwa_1" xmlns="http://www.w3.org/2000/svg" xmlns:xlink="http://www.w3.org/1999/xlink" x="0px" y="0px"
	 viewBox="0 0 293.8 293.7" style="enable-background:new 0 0 293.8 293.7;" xml:space="preserve">
<style type="text/css">
	.st0{display:none;}
	.st1{display:inline;fill:#F18F20;}
	.st2{fill:#F18F20;}
</style>
<g class="st0">
	<path class="st1" d="M295.3,72.6c0-14.5-11.8-26.4-26.4-26.4h-8.8V20.5c0-14.9-12.1-27-27-27H57.4c-14.9,0-27,12.1-27,27v25.8h-8.8
		C7.1,46.2-4.7,58.1-4.7,72.6v44.1h35.2v135.6h11.7v14.8c0,14.5,11.8,26.4,26.4,26.4h11.9c14.5,0,26.4-11.8,26.4-26.4v-14.8h77v14.8
		c0,14.5,11.8,26.4,26.4,26.4H222c14.5,0,26.4-11.8,26.4-26.4v-14.8h11.7V116.7h35.2V72.6z M57.4,11.1h175.8c5.2,0,9.4,4.2,9.4,9.4
		v8.2H48v-8.2C48,15.3,52.2,11.1,57.4,11.1z M12.8,99.1V72.6c0-4.8,3.9-8.8,8.8-8.8h8.8v35.3H12.8z M242.5,217.2v17.6h-55.9v-35.2
		h-82.7v35.2H48v-17.6h35.4v-17.6H48v-33.7c32.3,4.8,64.8,7.2,97.3,7.2s65-2.4,97.3-7.2v33.7h-35.4v17.6H242.5z M169,234.8h-47.6
		v-17.6H169V234.8z M89.2,267.1c0,4.8-3.9,8.8-8.8,8.8H68.5c-4.8,0-8.8-3.9-8.8-8.8v-14.8h29.5V267.1z M230.8,267.1
		c0,4.8-3.9,8.8-8.8,8.8h-11.9c-4.8,0-8.8-3.9-8.8-8.8v-14.8h29.5V267.1z M242.5,148.1c-64.6,9.8-129.9,9.8-194.5,0v-31.4V46.2
		h194.5v70.5V148.1z M277.7,99.1h-17.6V63.8h8.8c4.8,0,8.8,3.9,8.8,8.8V99.1z"/>
</g>
<g>
	<path class="st2" d="M146.9,293.7c-39.2,0-76.1-15.3-103.9-43s-43-64.6-43-103.9S15.3,70.8,43.1,43S107.7,0,146.9,0
		S223,15.3,250.8,43s43,64.6,43,103.9s-15.3,76.1-43,103.9S186.2,293.7,146.9,293.7z M146.9,17.2c-34.6,0-67.2,13.5-91.7,38
		c-24.5,24.5-38,57-38,91.7s13.5,67.2,38,91.7c24.5,24.5,57,38,91.7,38s67.2-13.5,91.7-38c24.5-24.5,38-57,38-91.7
		s-13.5-67.2-38-91.7C214.1,30.7,181.6,17.2,146.9,17.2z"/>
	<path class="st2" d="M63.5,214.1l-5.8-8.8c-11.4-17.4-17.4-37.6-17.4-58.4C40.2,88,88.1,40.2,146.9,40.2c20.8,0,41,6,58.4,17.4
		l8.8,5.8L63.5,214.1z M146.9,57.4c-49.4,0-89.5,40.1-89.5,89.5c0,13.9,3.2,27.4,9.3,39.7L186.6,66.7
		C174.3,60.6,160.8,57.4,146.9,57.4z"/>
	<path class="st2" d="M146.9,253.6c-20.8,0-41-6-58.4-17.4l-8.8-5.8L230.4,79.6l5.8,8.8c11.4,17.4,17.4,37.6,17.4,58.4
		C253.6,205.7,205.8,253.6,146.9,253.6z M107.3,227.1c12.3,6.1,25.8,9.3,39.7,9.3c49.4,0,89.5-40.1,89.5-89.5
		c0-13.9-3.2-27.4-9.3-39.7L107.3,227.1z"/>
</g>
</svg>
