<?xml version="1.0" encoding="utf-8"?>
<!-- Generator: Adobe Illustrator 25.4.1, SVG Export Plug-In . SVG Version: 6.00 Build 0)  -->
<svg version="1.1" id="Warstwa_1" xmlns="http://www.w3.org/2000/svg" xmlns:xlink="http://www.w3.org/1999/xlink" x="0px" y="0px"
	 viewBox="0 0 300 289.8" style="enable-background:new 0 0 300 289.8;" xml:space="preserve">
<style type="text/css">
	.st0{display:none;}
	.st1{display:inline;fill:#F18F20;}
	.st2{fill:#F18F20;}
</style>
<g class="st0">
	<path class="st1" d="M300,68.9c0-14.5-11.8-26.4-26.4-26.4h-8.8V16.8c0-14.9-12.1-27-27-27H62.1c-14.9,0-27,12.1-27,27v25.8h-8.8
		C11.8,42.6,0,54.4,0,68.9v44.1h35.2v135.6h11.7v14.8c0,14.5,11.8,26.4,26.4,26.4h11.9c14.5,0,26.4-11.8,26.4-26.4v-14.8h77v14.8
		c0,14.5,11.8,26.4,26.4,26.4h11.9c14.5,0,26.4-11.8,26.4-26.4v-14.8h11.7V113.1H300V68.9z M62.1,7.4h175.8c5.2,0,9.4,4.2,9.4,9.4
		V25H52.7v-8.2C52.7,11.6,56.9,7.4,62.1,7.4z M17.6,95.5V68.9c0-4.8,3.9-8.8,8.8-8.8h8.8v35.3H17.6z M247.3,213.5v17.6h-55.9v-35.2
		h-82.7v35.2H52.7v-17.6h35.4v-17.6H52.7v-33.7c32.3,4.8,64.8,7.2,97.3,7.2s65-2.4,97.3-7.2v33.7h-35.4v17.6H247.3z M173.8,231.1
		h-47.6v-17.6h47.6V231.1z M93.9,263.5c0,4.8-3.9,8.8-8.8,8.8H73.2c-4.8,0-8.8-3.9-8.8-8.8v-14.8h29.5V263.5z M235.5,263.5
		c0,4.8-3.9,8.8-8.8,8.8h-11.9c-4.8,0-8.8-3.9-8.8-8.8v-14.8h29.5V263.5z M247.3,144.5c-64.6,9.8-129.9,9.8-194.5,0v-31.4V42.6
		h194.5v70.5V144.5z M282.4,95.5h-17.6V60.2h8.8c4.8,0,8.8,3.9,8.8,8.8V95.5z"/>
</g>
<path class="st2" d="M277.5,127.5H249v-6.1c8.6-1.1,15.3-8.4,15.3-17.3c0-3.7-1.2-7.2-3.3-10.2c2.2-3,3.3-6.5,3.3-10.2
	c0-3.7-1.2-7.2-3.3-10.2c2.2-3,3.3-6.5,3.3-10.2c0-3.7-1.2-7.2-3.3-10.2c2.2-3,3.3-6.5,3.3-10.2c0-9.6-7.8-17.4-17.4-17.4h-3V20
	c0-11-9-20-20-20h-5c-11,0-20,9-20,20v5.5h-3c-9.6,0-17.4,7.8-17.4,17.4c0,3.7,1.2,7.2,3.3,10.2c-2.2,3-3.3,6.5-3.3,10.2
	c0,3.7,1.2,7.2,3.3,10.2c-2.2,3-3.3,6.5-3.3,10.2c0,3.7,1.2,7.2,3.3,10.2c-2.2,3-3.3,6.5-3.3,10.2c0,8.9,6.7,16.2,15.3,17.3v6.1H147
	V88.8c0-4-3.2-7.2-7.2-7.2h-23.4l0-38.7c0-18-14.7-32.7-32.7-32.7h-51C14.7,10.2,0,24.9,0,43V257c0,18.1,14.7,32.8,32.7,32.8h51
	c18,0,32.7-14.7,32.7-32.8v-28.4h23.4c4,0,7.2-3.2,7.2-7.2v-38.7h130.5c12.4,0,22.5-10.1,22.5-22.5V150
	C300,137.6,289.9,127.5,277.5,127.5z M218.9,14.4h5c3.1,0,5.6,2.5,5.6,5.5v5.5h-16.2V20C213.3,16.9,215.8,14.4,218.9,14.4z
	 M234.6,121.5v6h-26.4v-6H234.6z M246.9,45.9h-50.9c-1.7,0-3-1.3-3-3c0-1.6,1.4-3,3-3h50.9c1.7,0,3,1.3,3,3
	C249.9,44.6,248.5,45.9,246.9,45.9z M195.9,60.3h50.9c1.7,0,3,1.3,3,3c0,1.6-1.4,3-3,3h-50.9c-1.7,0-3-1.3-3-3
	C192.9,61.7,194.3,60.3,195.9,60.3z M195.9,80.7h50.9c1.7,0,3,1.3,3,3c0,1.6-1.4,3-3,3h-50.9c-1.7,0-3-1.3-3-3
	C192.9,82.1,194.3,80.7,195.9,80.7z M195.9,101.1h50.9c1.7,0,3,1.3,3,3c0,1.6-1.4,3-3,3h-50.9c-1.7,0-3-1.3-3-3
	C192.9,102.5,194.3,101.1,195.9,101.1z M285.6,160.2c0,4.5-3.6,8.1-8.1,8.1H147v-26.4h130.5c4.5,0,8.1,3.6,8.1,8.1L285.6,160.2z
	 M132.6,96v118.2h-16.2V96H132.6z M78,135.3c2.7,2.7,7.5,2.7,10.2,0l13.8-13.8v10.2l-24,24c-2.8,2.8-2.8,7.4,0,10.2
	c2.7,2.7,7.5,2.7,10.2,0l13.8-13.8v10.2l-24,24c-2.8,2.8-2.8,7.4,0,10.2c2.7,2.7,7.5,2.7,10.2,0l13.8-13.8v10.2l-24,24
	c-1.4,1.4-2.1,3.2-2.1,5.1s0.8,3.7,2.1,5.1c2.7,2.7,7.5,2.7,10.2,0l13.8-13.8v10.2l-24,24c-2.8,2.8-2.8,7.4,0,10.2
	c2.7,2.7,7.5,2.7,10.2,0l13.8-13.8V257c0,10.1-8.2,18.3-18.3,18.3h-51c-10.1,0-18.3-8.2-18.3-18.3v-13.1l13.8,13.8
	c2.7,2.7,7.5,2.7,10.2,0c2.8-2.8,2.8-7.4,0-10.2l-24-24v-10.2l13.8,13.8c2.7,2.7,7.5,2.7,10.2,0c1.4-1.4,2.1-3.2,2.1-5.1
	s-0.8-3.7-2.1-5.1l-24-24v-10.2l13.8,13.8c2.7,2.7,7.5,2.7,10.2,0c2.8-2.8,2.8-7.4,0-10.2l-24-24v-10.2l13.8,13.8
	c2.7,2.7,7.5,2.7,10.2,0c1.4-1.4,2.1-3.2,2.1-5.1c0-1.9-0.8-3.7-2.1-5.1l-24-24v-10.2l13.8,13.8c2.7,2.7,7.5,2.7,10.2,0
	c1.4-1.4,2.1-3.2,2.1-5.1s-0.8-3.7-2.1-5.1l-24-24V90.9l13.8,13.8c2.7,2.7,7.5,2.7,10.2,0c2.8-2.8,2.8-7.4,0-10.2l-24-24V60.3
	l13.8,13.8c2.7,2.7,7.5,2.7,10.2,0c1.4-1.4,2.1-3.2,2.1-5.1c0-1.9-0.8-3.7-2.1-5.1L14.6,40.1c1.4-8.9,9-15.5,18-15.5h51
	c9.1,0,16.7,6.6,18,15.5L78,63.9c-1.4,1.4-2.1,3.2-2.1,5.1c0,1.9,0.8,3.7,2.1,5.1c2.7,2.7,7.5,2.7,10.2,0L102,60.3v10.2l-24,24
	c-2.8,2.8-2.8,7.4,0,10.2c2.7,2.7,7.5,2.7,10.2,0L102,90.9v10.2l-24,24C75.2,127.9,75.2,132.5,78,135.3z"/>
</svg>
