<?xml version="1.0" encoding="utf-8"?>
<!-- Generator: Adobe Illustrator 25.4.1, SVG Export Plug-In . SVG Version: 6.00 Build 0)  -->
<svg version="1.1" id="Warstwa_1" xmlns="http://www.w3.org/2000/svg" xmlns:xlink="http://www.w3.org/1999/xlink" x="0px" y="0px"
	 viewBox="0 0 300 300" style="enable-background:new 0 0 300 300;" xml:space="preserve">
<style type="text/css">
	.st0{display:none;}
	.st1{display:inline;fill:#F18F20;}
	.st2{fill:#F18F20;}
</style>
<g class="st0">
	<path class="st1" d="M300,79.1c0-14.5-11.8-26.4-26.4-26.4h-8.8V27c0-14.9-12.1-27-27-27H62.1c-14.9,0-27,12.1-27,27v25.8h-8.8
		C11.8,52.7,0,64.6,0,79.1v44.1h35.2v135.6h11.7v14.8c0,14.5,11.8,26.4,26.4,26.4h11.9c14.5,0,26.4-11.8,26.4-26.4v-14.8h77v14.8
		c0,14.5,11.8,26.4,26.4,26.4h11.9c14.5,0,26.4-11.8,26.4-26.4v-14.8h11.7V123.2H300V79.1z M62.1,17.6h175.8c5.2,0,9.4,4.2,9.4,9.4
		v8.2H52.7V27C52.7,21.8,56.9,17.6,62.1,17.6z M17.6,105.6V79.1c0-4.8,3.9-8.8,8.8-8.8h8.8v35.3H17.6z M247.3,223.7v17.6h-55.9
		v-35.2h-82.7v35.2H52.7v-17.6h35.4v-17.6H52.7v-33.7c32.3,4.8,64.8,7.2,97.3,7.2s65-2.4,97.3-7.2v33.7h-35.4v17.6H247.3z
		 M173.8,241.2h-47.6v-17.6h47.6V241.2z M93.9,273.6c0,4.8-3.9,8.8-8.8,8.8H73.2c-4.8,0-8.8-3.9-8.8-8.8v-14.8h29.5V273.6z
		 M235.5,273.6c0,4.8-3.9,8.8-8.8,8.8h-11.9c-4.8,0-8.8-3.9-8.8-8.8v-14.8h29.5V273.6z M247.3,154.6c-64.6,9.8-129.9,9.8-194.5,0
		v-31.4V52.7h194.5v70.5V154.6z M282.4,105.6h-17.6V70.3h8.8c4.8,0,8.8,3.9,8.8,8.8V105.6z"/>
</g>
<g>
	<path class="st2" d="M276.5,239.4c5.7-7.4,8.8-16.4,8.8-25.8v-9.8c0-23.3-19-42.3-42.3-42.3c-23.3,0-42.3,19-42.3,42.3v9.8
		c0,9.4,3.1,18.4,8.8,25.8c-4,2-7.7,4.6-10.9,7.8c-4-5.3-9.2-9.7-15.1-12.7c5.7-7.4,8.8-16.4,8.8-25.8V199c0-23.3-19-42.3-42.3-42.3
		s-42.3,19-42.3,42.3v9.8c0,9.4,3.1,18.4,8.8,25.8c-6,3-11.2,7.4-15.1,12.7c-3.2-3.2-6.9-5.8-10.9-7.8c5.7-7.4,8.8-16.4,8.8-25.8
		v-9.8c0-23.3-19-42.3-42.3-42.3s-42.3,19-42.3,42.3v9.8c0,9.4,3.1,18.4,8.8,25.8C9.3,246.5,0.1,261.2,0,277.3v4.9
		C0,292,8,300,17.8,300h78.4c2.5,0,5-0.6,7.3-1.6c2.3,1.1,4.8,1.6,7.4,1.6h78.3c2.5,0,5.1-0.6,7.4-1.7c2.3,1.1,4.8,1.6,7.3,1.7h78.3
		c9.8,0,17.8-8,17.8-17.8v-4.9C299.9,261.2,290.7,246.5,276.5,239.4z M247.5,283.9h-9l1.5-8.4h6.1L247.5,283.9z M206,263.6
		c3.7-6,9.6-10.2,16.4-11.8l2.6,15.7l-2.9,16.4h-15.3c0.1-0.6,0.1-1.2,0.1-1.7v-9.8C207,269.4,206.7,266.5,206,263.6z M269.2,213.6
		c0,14.5-11.8,26.2-26.2,26.2c-14.5,0-26.2-11.8-26.2-26.2v-9.8c0-14.5,11.8-26.2,26.2-26.2c14.5,0,26.2,11.8,26.2,26.2V213.6z
		 M239.4,255.8c2.4,0.2,4.8,0.2,7.2,0l-0.6,3.7h-6L239.4,255.8z M263.6,251.8c11.7,2.7,20.3,13.2,20.3,25.5v4.9c0,1-0.8,1.7-1.7,1.7
		h-18.3l-2.9-16.4L263.6,251.8z M61.5,283.9h-9l1.5-8.4H60L61.5,283.9z M36.4,251.8l2.6,15.7l-2.9,16.4H17.8c-1,0-1.7-0.8-1.7-1.7
		v-4.9C16.1,265,24.7,254.5,36.4,251.8z M30.8,213.6v-9.8c0-14.5,11.8-26.2,26.2-26.2s26.2,11.8,26.2,26.2v9.8
		c0,14.5-11.8,26.2-26.2,26.2S30.8,228.1,30.8,213.6z M53.4,255.8c2.4,0.2,4.8,0.2,7.2,0l-0.6,3.7h-6L53.4,255.8z M93.1,283.9H77.8
		l-2.9-16.4l2.6-15.6c6.8,1.6,12.7,5.8,16.4,11.8c-0.6,2.9-1,5.8-1,8.8v9.8C93,282.8,93,283.3,93.1,283.9z M129.4,246.9l2.6,15.8
		l-3.1,21.2h-18.2c-1,0-1.7-0.8-1.7-1.7v-9.8C109.1,260.1,117.7,249.6,129.4,246.9z M150,172.7c14.5,0,26.2,11.8,26.2,26.2v9.8
		c0,14.5-11.8,26.2-26.2,26.2c-14.5,0-26.2-11.8-26.2-26.2V199C123.8,184.5,135.5,172.7,150,172.7z M146.4,250.9
		c2.4,0.2,4.8,0.2,7.2,0l-0.6,3.7h-6L146.4,250.9z M154.8,283.9h-9.5l1.9-13.3h5.7L154.8,283.9z M170.6,246.9
		c11.7,2.7,20.3,13.2,20.3,25.5v9.8c0,1-0.8,1.7-1.7,1.7H171l-3.1-21.2L170.6,246.9z"/>
	<path class="st2" d="M57,104.2h114.3v21.3c0,9.8,8,17.8,17.8,17.8h44.1c9.8,0,17.8-8,17.8-17.8V47.3c0-4.4-0.9-8.7-2.6-12.8
		l-10.2-23.7C235.4,4.2,229,0,221.9,0h-32.7c-9.8,0-17.8,8-17.8,17.8v21.3H57c-9.8,0-17.8,8-17.8,17.8v29.4
		C39.2,96.2,47.2,104.2,57,104.2z M55.2,86.4V57c0-1,0.8-1.7,1.7-1.7h114.3v32.9H57C56,88.1,55.2,87.3,55.2,86.4z M187.4,125.5V17.8
		c0-1,0.8-1.7,1.7-1.7h32.7c0.7,0,1.3,0.4,1.6,1.1l10.2,23.7c0.9,2.1,1.3,4.2,1.3,6.5v78.2c0,1-0.8,1.7-1.7,1.7h-44.1
		C188.2,127.3,187.4,126.5,187.4,125.5z"/>
</g>
</svg>
