<?xml version="1.0" encoding="utf-8"?>
<!-- Generator: Adobe Illustrator 25.4.1, SVG Export Plug-In . SVG Version: 6.00 Build 0)  -->
<svg version="1.1" id="Warstwa_1" xmlns="http://www.w3.org/2000/svg" xmlns:xlink="http://www.w3.org/1999/xlink" x="0px" y="0px"
	 viewBox="0 0 298.6 231.1" style="enable-background:new 0 0 298.6 231.1;" xml:space="preserve">
<style type="text/css">
	.st0{display:none;}
	.st1{display:inline;fill:#F18F20;}
	.st2{fill:#F18F20;}
</style>
<g class="st0">
	<path class="st1" d="M300,56.3c0-14.5-11.8-26.4-26.4-26.4h-8.8V4.2c0-14.9-12.1-27-27-27H62.1c-14.9,0-27,12.1-27,27V30h-8.8
		C11.8,30,0,41.8,0,56.3v44.1h35.2V236h11.7v14.8c0,14.5,11.8,26.4,26.4,26.4h11.9c14.5,0,26.4-11.8,26.4-26.4V236h77v14.8
		c0,14.5,11.8,26.4,26.4,26.4h11.9c14.5,0,26.4-11.8,26.4-26.4V236h11.7V100.4H300V56.3z M62.1-5.2h175.8c5.2,0,9.4,4.2,9.4,9.4v8.2
		H52.7V4.2C52.7-1,56.9-5.2,62.1-5.2z M17.6,82.9V56.3c0-4.8,3.9-8.8,8.8-8.8h8.8v35.3H17.6z M247.3,200.9v17.6h-55.9v-35.2h-82.7
		v35.2H52.7v-17.6h35.4v-17.6H52.7v-33.7c32.3,4.8,64.8,7.2,97.3,7.2s65-2.4,97.3-7.2v33.7h-35.4v17.6H247.3z M173.8,218.5h-47.6
		v-17.6h47.6V218.5z M93.9,250.9c0,4.8-3.9,8.8-8.8,8.8H73.2c-4.8,0-8.8-3.9-8.8-8.8V236h29.5V250.9z M235.5,250.9
		c0,4.8-3.9,8.8-8.8,8.8h-11.9c-4.8,0-8.8-3.9-8.8-8.8V236h29.5V250.9z M247.3,131.8c-64.6,9.8-129.9,9.8-194.5,0v-31.4V30h194.5
		v70.5V131.8z M282.4,82.9h-17.6V47.5h8.8c4.8,0,8.8,3.9,8.8,8.8V82.9z"/>
</g>
<g>
	<g>
		<g>
			<path class="st2" d="M287.4,85.9l-6.5-6.9L258,17.4C254.1,7,244.2,0.1,233,0H69.8c-11.1,0-21.1,7-25,17.4L22.3,78.2l-9.4,8.7
				C4.7,93.9,0,104.1,0,114.8v89.8c0.1,14.7,12,26.6,26.7,26.6h16.9c14.7,0,26.6-11.9,26.7-26.6v-13h158.3v13
				c0.1,14.7,12,26.6,26.7,26.6h16.9c14.7,0,26.6-11.9,26.7-26.6v-92.1C298.7,102.4,294.7,92.8,287.4,85.9z M56.8,21.7
				c2-5.4,7.2-8.9,13-8.9h163.3c5.7,0,10.9,3.6,13,8.9L266,75.3h-14.9c-3.5-23.9-25.8-40.5-49.7-36.9c-19.1,2.8-34.1,17.8-36.9,36.9
				H36.9L56.8,21.7z M238.1,75.3h-60.7c3.5-16.8,20-27.5,36.8-24C226.2,53.9,235.5,63.3,238.1,75.3z M57.5,204.6
				c-0.1,7.7-6.3,13.8-13.9,13.8H26.7c-7.7,0-13.9-6.1-13.9-13.8v-16.7c3.8,2.5,8.9,3.7,13.9,3.7h30.8V204.6z M286,204.6
				c-0.1,7.7-6.3,13.8-13.9,13.8h-16.9c-7.7,0-13.9-6.2-13.9-13.8v-13h30.8c5,0,10.1-1.2,13.9-3.7L286,204.6L286,204.6z
				 M272.1,178.8H26.7c-7.6,0.1-13.9-6-13.9-13.7v-50.3c0-7,3.1-13.7,8.5-18.3c0.1-0.1,0.2-0.2,0.3-0.3l8.7-8.2H272l6.1,6.6
				c0.1,0.1,0.3,0.2,0.3,0.3c4.8,4.5,7.5,10.9,7.5,17.4v52.7h0.1C286,172.7,279.7,178.8,272.1,178.8z"/>
		</g>
	</g>
	<g>
		<g>
			<path class="st2" d="M84.3,113.7H36.4c-3.5,0-6.4,2.9-6.4,6.4v33.2c0,3.5,2.9,6.4,6.4,6.4h47.9c3.5,0,6.4-2.9,6.4-6.4V120
				C90.7,116.5,87.8,113.7,84.3,113.7z M77.9,146.9H42.8v-20.4h35.1V146.9z"/>
		</g>
	</g>
	<g>
		<g>
			<path class="st2" d="M262.4,113.7h-47.9c-3.5,0-6.4,2.9-6.4,6.4v33.2c0,3.5,2.9,6.4,6.4,6.4h47.9c3.5,0,6.4-2.9,6.4-6.4V120
				C268.8,116.5,265.9,113.7,262.4,113.7z M256,146.9h-35.1v-20.4H256V146.9z"/>
		</g>
	</g>
	<g>
		<g>
			<path class="st2" d="M180.2,140.5h-61.7c-3.5,0-6.4,2.9-6.4,6.4s2.9,6.4,6.4,6.4h61.7c3.5,0,6.4-2.9,6.4-6.4
				S183.8,140.5,180.2,140.5z"/>
		</g>
	</g>
	<g>
		<g>
			<path class="st2" d="M180.2,120.7h-61.7c-3.5,0-6.4,2.9-6.4,6.4s2.9,6.4,6.4,6.4h61.7c3.5,0,6.4-2.9,6.4-6.4
				S183.8,120.7,180.2,120.7z"/>
		</g>
	</g>
</g>
</svg>
