<?xml version="1.0" encoding="utf-8"?>
<!-- Generator: Adobe Illustrator 25.4.1, SVG Export Plug-In . SVG Version: 6.00 Build 0)  -->
<svg version="1.1" id="Warstwa_1" xmlns="http://www.w3.org/2000/svg" xmlns:xlink="http://www.w3.org/1999/xlink" x="0px" y="0px"
	 viewBox="0 0 580.8 123.4" style="enable-background:new 0 0 580.8 123.4;" xml:space="preserve">
<style type="text/css">
	.st0{fill:url(#SVGID_1_);}
	.st1{fill:url(#SVGID_00000105401557574283659920000005232170920474936988_);}
	.st2{fill:url(#SVGID_00000178172055670471131670000000528408375145408442_);}
	.st3{fill:url(#SVGID_00000016772152806801091890000005132963522338433942_);}
	.st4{fill:#FFFFFF;}
	.st5{fill:#F4A41C;}
</style>
<linearGradient id="SVGID_1_" gradientUnits="userSpaceOnUse" x1="4.8689" y1="53.4338" x2="111.4954" y2="72.2348" gradientTransform="matrix(1 0 0 -1 0 123.7323)">
	<stop  offset="0" style="stop-color:#008393"/>
	<stop  offset="9.867811e-02" style="stop-color:#029894"/>
	<stop  offset="0.2186" style="stop-color:#03AA96"/>
	<stop  offset="0.3636" style="stop-color:#04B796"/>
	<stop  offset="0.5571" style="stop-color:#05BE97"/>
	<stop  offset="1" style="stop-color:#05C097"/>
</linearGradient>
<path class="st0" d="M106.4,22.6c0,0-27.9,6.6-53.1-22.6c-25.2,29.2-53,22.6-53,22.6c-4.6,78.3,53.1,100.9,53.1,100.9
	S111.1,100.9,106.4,22.6z"/>
<linearGradient id="SVGID_00000182502887738868671210000004464197797161582476_" gradientUnits="userSpaceOnUse" x1="19.2359" y1="62.0323" x2="52.9584" y2="62.0323" gradientTransform="matrix(1 0 0 -1 0 123.7323)">
	<stop  offset="0" style="stop-color:#F17C1E"/>
	<stop  offset="1" style="stop-color:#EFCC1C"/>
</linearGradient>
<path style="fill:url(#SVGID_00000182502887738868671210000004464197797161582476_);" d="M19.4,37C16.5,86.5,53,100.7,53,100.7v-78
	C37,41.2,19.4,37,19.4,37z"/>
<linearGradient id="SVGID_00000142154829870597977060000007113842331625843358_" gradientUnits="userSpaceOnUse" x1="53" y1="62.0323" x2="106.7611" y2="62.0323" gradientTransform="matrix(1 0 0 -1 0 123.7323)">
	<stop  offset="0" style="stop-color:#F17C1E"/>
	<stop  offset="1" style="stop-color:#EFCC1C"/>
</linearGradient>
<path style="fill:url(#SVGID_00000142154829870597977060000007113842331625843358_);" d="M53.4,0c-0.1,0.2-0.3,0.3-0.4,0.4v122.8
	c0.3,0.1,0.4,0.2,0.4,0.2s57.7-22.6,53.1-100.9C106.4,22.6,78.6,29.2,53.4,0z"/>
<linearGradient id="SVGID_00000067921886822324177800000017209724690679237022_" gradientUnits="userSpaceOnUse" x1="52.9635" y1="62.0323" x2="86.6859" y2="62.0323" gradientTransform="matrix(1 0 0 -1 0 123.7323)">
	<stop  offset="0" style="stop-color:#07C296"/>
	<stop  offset="1" style="stop-color:#008493"/>
</linearGradient>
<path style="fill:url(#SVGID_00000067921886822324177800000017209724690679237022_);" d="M86.5,37c3,49.5-33.5,63.7-33.5,63.7v-78
	C68.9,41.2,86.5,37,86.5,37z"/>
<g>
	<path class="st4" d="M154.3,30.2c3,0,5.4,0.4,7.3,1.3c1.9,0.9,3.6,1.9,5.2,3c0.5,0.4,1,0.7,1.3,0.7c0.8,0,1.4-1.4,1.7-4.1h1.5
		c-0.1,1.7-0.2,3.8-0.2,6.2c0,2.5-0.1,5.7-0.1,9.7h-1.5c-0.3-2.4-0.8-4.6-1.3-6.5c-0.6-1.9-1.6-3.6-3.1-4.9
		c-1.2-1.2-2.6-2.2-4.4-2.9c-1.8-0.7-3.5-1-5.3-1c-2.4,0-4.4,0.6-6.2,1.8s-3.2,2.9-4.4,5s-2.1,4.6-2.6,7.4c-0.6,2.8-0.9,5.8-0.9,8.9
		c0,8,1.2,13.9,3.5,17.7c2.3,3.7,5.8,5.6,10.4,5.6c1.2,0,2.3-0.2,3.2-0.5s1.7-0.7,2.2-1c0.7-0.5,1.2-1,1.4-1.5s0.3-1.2,0.3-2v-6.6
		c0-2-0.2-3.4-0.5-4.4c-0.4-1-1-1.6-2-2s-2.4-0.6-4.3-0.6v-1.3c0.9,0,2,0.1,3.2,0.1s2.5,0,3.9,0.1c1.4,0,2.6,0,3.7,0
		c1.7,0,3.3,0,4.8-0.1c1.4,0,2.6-0.1,3.6-0.1v1.3c-1.3,0.1-2.2,0.4-2.6,1.1c-0.4,0.6-0.6,2.2-0.6,4.7v13.3h-1.3
		c0-0.8-0.2-1.6-0.5-2.5s-0.8-1.3-1.4-1.3c-0.3,0-0.7,0.1-1.1,0.2c-0.4,0.2-1.1,0.5-2.1,1c-1.6,1-3.2,1.9-5,2.5s-3.7,1-5.8,1
		c-7.5,0-13.3-2.1-17.3-6.4c-4-4.2-6-10.1-6-17.6c0-5.1,1-9.6,3-13.4c2-3.8,4.8-6.7,8.3-8.8C145.8,31.2,149.8,30.2,154.3,30.2z"/>
	<path class="st4" d="M198.8,43c1.4,0,2.5,0.3,3.5,0.9c0.9,0.6,1.6,1.3,2,2.2s0.7,1.8,0.7,2.8c0,1.5-0.4,2.7-1.3,3.7
		c-0.9,1-2,1.5-3.5,1.5c-1.3,0-2.4-0.4-3.3-1.1c-0.8-0.7-1.3-1.7-1.3-2.9c0-1.1,0.3-2.1,0.8-2.8c0.6-0.8,1.2-1.4,1.9-1.8
		c-0.5-0.3-1-0.4-1.7-0.3c-1.4,0.1-2.7,0.7-3.8,1.8s-1.9,2.4-2.5,3.9s-0.9,2.9-0.9,4.3v16.5c0,2.2,0.6,3.7,1.7,4.4
		c1.1,0.7,2.7,1.1,4.9,1.1v1.4c-1,0-2.5-0.1-4.5-0.2s-4-0.1-6.1-0.1c-1.7,0-3.5,0-5.2,0.1s-3,0.1-3.9,0.2v-1.4c1.7,0,2.8-0.3,3.5-1
		s1-1.9,1-3.8V51.2c0-2-0.3-3.5-1-4.5c-0.6-1-1.8-1.4-3.6-1.4v-1.4c1.4,0.1,2.8,0.2,4.2,0.2c1.7,0,3.2-0.1,4.7-0.2
		c1.5-0.2,2.9-0.4,4.1-0.7v7c0.5-1.2,1.2-2.4,2.1-3.5c0.9-1.1,1.9-2,3.1-2.6C196.1,43.3,197.4,43,198.8,43z"/>
	<path class="st4" d="M233.7,43.6l-17.6,33.9h4.8c1.7,0,3.3-0.4,4.8-1.1s2.7-2,3.7-3.7s1.6-4,1.7-6.8h1.5c0,3.1,0,5.7,0.1,7.8
		c0,2.1,0.1,3.8,0.2,5.1c-2-0.1-4.1-0.2-6.3-0.2s-4.3-0.1-6.5-0.1c-2.3,0-4.6,0-7,0.1s-4.6,0.1-6.8,0.2L223.9,45h-5
		c-1.8,0-3.5,0.4-4.9,1.1c-1.5,0.7-2.6,1.9-3.5,3.6c-0.9,1.7-1.4,4-1.6,6.9h-1.5c0-3.2,0-5.8-0.1-7.8c0-2-0.1-3.7-0.2-5.1
		c2,0.1,4.1,0.2,6.3,0.2s4.3,0.1,6.5,0.1c2.3,0,4.6,0,7-0.1C229.2,43.8,231.5,43.7,233.7,43.6z"/>
	<path class="st4" d="M252.9,43c3.9,0,7,1.2,9.2,3.6c2.2,2.4,3.3,6.1,3.3,11.3h-22.6l-0.1-1.3h14.9c0.1-2.2,0-4.2-0.4-6.1
		c-0.4-1.9-0.9-3.3-1.7-4.5c-0.8-1.1-1.8-1.7-3-1.7c-1.7,0-3.2,1-4.4,3c-1.3,2-2,5.2-2.3,9.7l0.3,0.4c-0.1,0.6-0.1,1.2-0.2,1.9
		s0,1.3,0,2c0,3.1,0.4,5.6,1.3,7.6c0.9,2,2.1,3.5,3.5,4.4s2.9,1.4,4.4,1.4c1.6,0,3.2-0.4,4.8-1.2c1.6-0.8,3.1-2.3,4.3-4.7l1.3,0.5
		c-0.5,1.6-1.3,3.1-2.4,4.7s-2.6,2.8-4.4,3.8s-3.9,1.5-6.3,1.5c-3,0-5.7-0.7-8-2s-4.1-3.3-5.4-6c-1.3-2.7-1.9-5.9-1.9-9.7
		c0-4.1,0.7-7.5,2-10.3c1.4-2.8,3.2-4.9,5.7-6.3C247.1,43.7,249.8,43,252.9,43z"/>
	<path class="st4" d="M281,91.1c-2.6,0-5-0.2-7.2-0.7c-2.1-0.5-3.8-1.2-5.1-2.2c-1.3-1-1.9-2.2-1.9-3.7c0-1.4,0.6-2.7,1.9-3.8
		c1.2-1.1,3.1-2,5.5-2.5l0.5,1.1c-0.8,0.5-1.5,1.2-1.9,2s-0.7,1.7-0.7,2.7c0,1.9,0.9,3.4,2.6,4.5c1.8,1,4.1,1.6,7.1,1.6
		c2,0,3.9-0.3,5.6-0.8s3.1-1.4,4.1-2.5s1.5-2.5,1.5-4.2c0-1.4-0.5-2.5-1.5-3.5c-1-0.9-3-1.4-6-1.4h-4.4c-1.7,0-3.2-0.2-4.5-0.5
		c-1.4-0.4-2.4-0.9-3.2-1.7c-0.8-0.8-1.2-1.9-1.2-3.4c0-1.7,0.7-3.3,2.1-4.7c1.4-1.4,3.7-2.8,6.7-4.1l0.7,0.6
		c-1.1,0.6-2.1,1.2-3,1.9c-0.9,0.7-1.3,1.5-1.3,2.5c0,1.4,1,2.1,2.9,2.1h7.6c3.4,0,6.3,0.7,8.6,2c2.3,1.3,3.5,3.5,3.5,6.6
		c0,2.1-0.7,4.1-2.1,6s-3.5,3.4-6.3,4.5C288.9,90.6,285.4,91.1,281,91.1z M281.6,64.3c-3.7,0-6.7-0.9-9.1-2.6
		c-2.4-1.7-3.7-4.4-3.7-8.1c0-3.7,1.2-6.4,3.7-8.1c2.4-1.7,5.5-2.5,9.1-2.5s6.7,0.8,9.1,2.5c2.5,1.7,3.7,4.4,3.7,8.1
		c0,3.7-1.2,6.4-3.7,8.1C288.3,63.4,285.3,64.3,281.6,64.3z M281.6,63.1c1.3,0,2.4-0.7,3.2-2c0.8-1.4,1.2-3.8,1.2-7.4
		c0-3.6-0.4-6-1.2-7.4c-0.8-1.4-1.8-2-3.2-2s-2.4,0.7-3.2,2c-0.8,1.4-1.2,3.8-1.2,7.4c0,3.6,0.4,6,1.2,7.4
		C279.2,62.4,280.3,63.1,281.6,63.1z M291.8,48.7l-1.3-0.5c0.7-1.7,1.8-3,3.3-4.2c1.5-1.1,3.1-1.7,4.8-1.7c1.3,0,2.3,0.4,3,1.1
		c0.7,0.7,1.1,1.7,1.1,3s-0.4,2.3-1.1,2.9c-0.7,0.6-1.5,0.9-2.3,0.9s-1.5-0.3-2.1-0.8s-1-1.3-1.1-2.4c-0.1-1.1,0.3-2.5,1.1-4.1
		l0.7,0.3c-1.7,0.7-3,1.4-3.9,2.2C293.2,46.2,292.4,47.3,291.8,48.7z"/>
	<path class="st4" d="M319.4,43c3.1,0,5.8,0.6,8.2,1.8c2.4,1.2,4.3,3.2,5.7,5.9c1.4,2.7,2.1,6.2,2.1,10.6s-0.7,7.9-2.1,10.6
		s-3.3,4.6-5.7,5.8c-2.4,1.2-5.1,1.8-8.2,1.8s-5.8-0.6-8.2-1.8c-2.4-1.2-4.3-3.1-5.7-5.8c-1.4-2.7-2.1-6.2-2.1-10.6
		s0.7-7.9,2.1-10.6c1.4-2.7,3.3-4.6,5.7-5.9C313.5,43.6,316.3,43,319.4,43z M319.4,44.3c-2.1,0-3.8,1.3-5.1,4c-1.3,2.7-2,7-2,13
		s0.7,10.3,2,12.9s3,4,5.1,4s3.8-1.3,5.1-4c1.3-2.6,2-6.9,2-12.9s-0.7-10.3-2-13C323.1,45.6,321.4,44.3,319.4,44.3z"/>
	<path class="st4" d="M360.5,43c1.4,0,2.5,0.3,3.5,0.9c0.9,0.6,1.6,1.3,2,2.2s0.7,1.8,0.7,2.8c0,1.5-0.4,2.7-1.3,3.7s-2,1.5-3.5,1.5
		c-1.3,0-2.4-0.4-3.3-1.1c-0.8-0.7-1.3-1.7-1.3-2.9c0-1.1,0.3-2.1,0.8-2.8c0.6-0.8,1.2-1.4,1.9-1.8c-0.5-0.3-1-0.4-1.7-0.3
		c-1.4,0.1-2.7,0.7-3.8,1.8c-1.1,1.1-1.9,2.4-2.5,3.9s-0.9,2.9-0.9,4.3v16.5c0,2.2,0.6,3.7,1.7,4.4c1.1,0.7,2.7,1.1,4.9,1.1v1.4
		c-1,0-2.5-0.1-4.5-0.2s-4-0.1-6.1-0.1c-1.7,0-3.5,0-5.2,0.1s-3,0.1-3.9,0.2v-1.4c1.7,0,2.8-0.3,3.5-1s1-1.9,1-3.8V51.2
		c0-2-0.3-3.5-1-4.5c-0.6-1-1.8-1.4-3.6-1.4v-1.4c1.4,0.1,2.8,0.2,4.2,0.2c1.7,0,3.2-0.1,4.7-0.2c1.5-0.2,2.9-0.4,4.1-0.7v7
		c0.5-1.2,1.2-2.4,2.1-3.5s1.9-2,3.1-2.6C357.7,43.3,359.1,43,360.5,43z"/>
	<path class="st4" d="M395.3,43.6l-17.6,33.9h4.8c1.7,0,3.3-0.4,4.8-1.1s2.7-2,3.7-3.7s1.6-4,1.7-6.8h1.5c0,3.1,0,5.7,0.1,7.8
		c0,2.1,0.1,3.8,0.2,5.1c-2-0.1-4.1-0.2-6.3-0.2c-2.2,0-4.3-0.1-6.5-0.1c-2.3,0-4.6,0-7,0.1s-4.6,0.1-6.8,0.2L385.6,45h-5
		c-1.8,0-3.5,0.4-4.9,1.1c-1.5,0.7-2.6,1.9-3.5,3.6c-0.9,1.7-1.4,4-1.6,6.9h-1.5c0-3.2,0-5.8-0.1-7.8c0-2-0.1-3.7-0.2-5.1
		c2,0.1,4.1,0.2,6.3,0.2c2.2,0,4.3,0.1,6.5,0.1c2.3,0,4.6,0,7-0.1C390.9,43.8,393.2,43.7,395.3,43.6z"/>
	<path class="st5" d="M428.8,30.3c2.5,0,4.4,0.3,5.8,0.8s2.5,1.1,3.5,1.7c0.5,0.3,1,0.5,1.3,0.7s0.7,0.2,1,0.2c0.7,0,1.2-1,1.5-2.9
		h1.5c0,0.8-0.1,1.8-0.2,2.9s-0.1,2.6-0.1,4.5s0,4.3,0,7.3h-1.5c-0.1-2.3-0.6-4.5-1.5-6.6s-2.1-3.8-3.7-5.2s-3.6-2-6.1-2
		c-2.2,0-4,0.6-5.5,1.9c-1.5,1.3-2.2,3-2.2,5.2c0,1.9,0.5,3.5,1.4,4.7c0.9,1.3,2.3,2.5,4,3.7s3.8,2.5,6.1,4.1
		c2.2,1.4,4.2,2.8,5.9,4.3c1.7,1.4,3.1,3,4.1,4.7s1.5,3.8,1.5,6.2c0,2.9-0.7,5.3-2.1,7.2c-1.4,1.9-3.4,3.3-5.8,4.3
		c-2.4,0.9-5,1.4-7.9,1.4c-2.6,0-4.7-0.3-6.3-0.8c-1.5-0.5-2.9-1.1-4-1.7c-1-0.6-1.7-0.9-2.3-0.9c-0.7,0-1.2,1-1.5,2.9h-1.5
		c0.1-1,0.1-2.2,0.2-3.6c0-1.4,0-3.2,0.1-5.4c0-2.2,0-5,0-8.4h1.5c0.2,2.9,0.7,5.5,1.5,8s2.1,4.5,3.8,6c1.7,1.5,4,2.3,6.9,2.3
		c2.3,0,4.3-0.7,6-2s2.5-3.3,2.5-6s-0.9-5-2.8-6.8s-4.3-3.7-7.4-5.6c-2.1-1.3-4.1-2.7-5.9-4.1c-1.8-1.4-3.3-3-4.4-4.7
		c-1.1-1.8-1.6-3.9-1.6-6.4c0-2.8,0.7-5,2-6.8s3.1-3.1,5.3-3.9C424,30.7,426.3,30.3,428.8,30.3z"/>
	<path class="st5" d="M465.8,43c3.1,0,5.8,0.6,8.2,1.8c2.4,1.2,4.3,3.2,5.7,5.9c1.4,2.7,2.1,6.2,2.1,10.6s-0.7,7.9-2.1,10.6
		s-3.3,4.6-5.7,5.8c-2.4,1.2-5.1,1.8-8.2,1.8s-5.8-0.6-8.2-1.8c-2.4-1.2-4.3-3.1-5.7-5.8c-1.4-2.7-2.1-6.2-2.1-10.6
		s0.7-7.9,2.1-10.6c1.4-2.7,3.3-4.6,5.7-5.9C459.9,43.6,462.7,43,465.8,43z M465.8,44.3c-2.1,0-3.8,1.3-5.1,4c-1.3,2.7-2,7-2,13
		s0.7,10.3,2,12.9s3,4,5.1,4s3.8-1.3,5.1-4c1.3-2.6,2-6.9,2-12.9s-0.7-10.3-2-13C469.5,45.6,467.8,44.3,465.8,44.3z"/>
	<path class="st5" d="M492.5,51v2l-11.1,9.6v-2L492.5,51z M496.6,26.1v46.2c0,1.9,0.3,3.1,1,3.8c0.7,0.7,1.9,1,3.5,1v1.4
		c-0.8,0-2-0.1-3.7-0.2c-1.6-0.1-3.3-0.1-5-0.1s-3.3,0-5.1,0.1c-1.7,0.1-3,0.1-3.9,0.2v-1.4c1.7,0,2.8-0.3,3.5-1s1-1.9,1-3.8V34.1
		c0-2-0.3-3.5-0.9-4.5s-1.8-1.4-3.6-1.4v-1.4c1.4,0.1,2.8,0.2,4.2,0.2c1.7,0,3.3-0.1,4.8-0.2C494,26.6,495.3,26.4,496.6,26.1z
		 M503.5,43.1v2l-11.1,9.7v-2L503.5,43.1z"/>
	<path class="st5" d="M515.4,32.9V44h8.6v1.3h-8.6V72c0,1.6,0.3,2.7,0.9,3.4c0.6,0.7,1.4,1,2.5,1c1,0,2-0.4,2.8-1.2
		c0.8-0.8,1.6-2.1,2.3-3.9l1.2,0.5c-0.7,2.2-1.7,4-3.1,5.5c-1.4,1.5-3.4,2.2-5.9,2.2c-1.5,0-2.8-0.2-3.9-0.6c-1-0.4-2-0.9-2.7-1.6
		c-1-1-1.6-2.3-2-3.7c-0.3-1.4-0.5-3.3-0.5-5.7V45.3h-5.9V44h5.9v-9.3c1.6,0,3.1-0.2,4.5-0.5C512.8,33.9,514.2,33.5,515.4,32.9z"/>
	<path class="st5" d="M556.9,43.9v1.4c-0.8,0.2-1.6,0.6-2.4,1.4c-0.7,0.8-1.4,2.1-2.1,4l-9.9,27.2l-2.1,3.1l-13.8-32
		c-0.8-1.7-1.7-2.7-2.4-3.1c-0.8-0.4-1.4-0.6-1.9-0.6v-1.4c1.3,0.1,2.6,0.2,4.1,0.3c1.4,0.1,2.8,0.1,4.3,0.1c1.7,0,3.2,0,4.8-0.1
		c1.5-0.1,3-0.2,4.3-0.3v1.4c-1,0-1.9,0.1-2.7,0.2c-0.8,0.1-1.3,0.5-1.6,1.1c-0.2,0.6-0.1,1.6,0.5,3.1l8.4,20.4l-0.5,0.3l5.9-15.9
		c1.1-3.1,1.3-5.4,0.5-6.8c-0.8-1.4-2.3-2.2-4.5-2.3V44c1.1,0.1,2.1,0.2,3.2,0.2c1,0,2,0.1,3,0.1c0.9,0,1.9,0,2.8-0.1
		C555.5,44.1,556.3,44,556.9,43.9z M542.5,77.9l-2.5,6.8c-0.8,2.2-1.8,3.8-2.9,4.8c-0.7,0.6-1.5,1-2.4,1.3s-2,0.4-3.2,0.4
		c-1,0-2-0.2-3-0.5c-1-0.4-1.8-0.9-2.4-1.6c-0.6-0.7-1-1.7-1-2.8c0-1.3,0.4-2.3,1.3-3c0.8-0.8,2-1.1,3.5-1.1c1.3,0,2.4,0.3,3.2,1
		c0.8,0.6,1.2,1.6,1.2,2.9c0,0.8-0.2,1.6-0.7,2.3s-1.2,1.2-2.1,1.5c0.2,0,0.4,0.1,0.6,0.1c0.2,0,0.4,0,0.5,0c1.3,0,2.5-0.4,3.5-1.3
		c1-0.8,1.9-2.2,2.5-4l2.4-6.6h1.5V77.9z"/>
	<path class="st5" d="M569.8,43c1.9,0,3.5,0.3,4.8,0.8s2.3,1,2.9,1.4c1.5,1.1,2.4,0.4,2.7-2.1h1.5c-0.1,1.3-0.2,2.8-0.2,4.6
		s-0.1,4.1-0.1,7.1h-1.5c-0.2-1.7-0.6-3.3-1.3-4.8c-0.6-1.6-1.5-2.9-2.7-3.9s-2.8-1.6-4.8-1.6c-1.4,0-2.5,0.4-3.5,1.2
		c-0.9,0.8-1.4,1.9-1.4,3.4c0,1.3,0.4,2.5,1.2,3.5s1.8,1.9,3.1,2.8c1.3,0.9,2.6,1.8,4,2.8c2.4,1.7,4.4,3.3,6,5s2.4,3.9,2.4,6.5
		c0,2.1-0.6,3.8-1.7,5.3c-1.1,1.5-2.6,2.6-4.5,3.4s-3.9,1.2-6.1,1.2c-1.2,0-2.3-0.1-3.3-0.3c-1-0.2-1.9-0.5-2.6-0.9
		c-0.6-0.3-1.1-0.6-1.6-0.9s-0.9-0.5-1.4-0.7c-0.4-0.2-0.8-0.1-1.2,0.3s-0.6,1.1-0.8,2h-1.5c0.1-1.4,0.2-3.2,0.2-5.2
		c0-2.1,0.1-4.8,0.1-8.2h1.5c0.3,2.5,0.8,4.6,1.4,6.5c0.6,1.9,1.6,3.3,2.8,4.4c1.2,1,2.9,1.6,4.8,1.6c1.2,0,2.4-0.4,3.5-1.2
		c1.1-0.8,1.7-2.2,1.7-4.1c0-2-0.7-3.6-2-4.9s-3-2.7-5-4.2c-1.5-1.1-2.9-2.2-4.3-3.3c-1.3-1.1-2.4-2.3-3.2-3.6s-1.2-2.9-1.2-4.8
		c0-2,0.5-3.7,1.5-5s2.4-2.3,4.1-3C566.1,43.3,567.9,43,569.8,43z"/>
</g>
<g>
	<g>
		<path class="st4" d="M147.3,117.5c-5.3,0-9.3-4-9.3-9.6s4-9.6,9.3-9.6s9.3,4,9.3,9.6C156.7,113.5,152.7,117.5,147.3,117.5z
			 M147.3,115.8c4.2,0,7.4-3.1,7.4-8s-3.2-8-7.4-8s-7.4,3-7.4,8S143.2,115.8,147.3,115.8z"/>
		<path class="st4" d="M193.6,107.9c0,5.9-3.7,9.4-10,9.4H178V98.4h5.6C189.9,98.4,193.6,102,193.6,107.9z M183.6,115.7
			c5.3,0,8.1-3,8.1-7.8c0-4.9-2.7-7.9-8.1-7.9h-3.7v15.7C179.9,115.7,183.6,115.7,183.6,115.7z"/>
		<path class="st4" d="M220.6,117.5c-3.8,0-6.3-2.2-6.4-5h2c0.2,1.6,1.3,3.5,4.4,3.5c2.6,0,4.2-1.5,4.2-3.5c0-5.6-10.4-2.1-10.4-9.1
			c0-2.9,2.4-5,6-5s5.7,2,6.1,4.6h-2.1c-0.2-1.3-1.5-2.9-4.1-3c-2.2,0-4,1.2-4,3.4c0,5.5,10.4,2.1,10.4,9.1
			C226.7,114.9,224.6,117.5,220.6,117.5z"/>
		<path class="st4" d="M258.9,99.9l-9.5,15.7h9.6v1.7h-11.8v-1.5l9.5-15.7h-9.3v-1.7H259v1.5H258.9z"/>
		<path class="st4" d="M282.1,108.6v8.7h-1.9V98.4h1.9v8.8l8.2-8.8h2.4l-8.8,9.4l8.9,9.4h-2.5L282.1,108.6z"/>
		<path class="st4" d="M321.9,117.5c-5.3,0-9.3-4-9.3-9.6s4-9.6,9.3-9.6s9.3,4,9.3,9.6C331.2,113.5,327.2,117.5,321.9,117.5z
			 M321.9,115.8c4.2,0,7.4-3.1,7.4-8s-3.2-8-7.4-8c-4.2,0-7.4,3-7.4,8S317.7,115.8,321.9,115.8z"/>
		<path class="st4" d="M368.1,107.9c0,5.9-3.7,9.4-10,9.4h-5.6V98.4h5.6C364.4,98.4,368.1,102,368.1,107.9z M358.1,115.7
			c5.3,0,8.1-3,8.1-7.8c0-4.9-2.7-7.9-8.1-7.9h-3.7v15.7C354.4,115.7,358.1,115.7,358.1,115.7z"/>
		<path class="st4" d="M397.9,117.5c-5.3,0-9.3-4-9.3-9.6s4-9.6,9.3-9.6s9.3,4,9.3,9.6C407.2,113.5,403.2,117.5,397.9,117.5z
			 M397.9,115.8c4.2,0,7.4-3.1,7.4-8s-3.2-8-7.4-8c-4.2,0-7.4,3-7.4,8S393.7,115.8,397.9,115.8z"/>
		<path class="st4" d="M427.1,98.4h2l4.3,16.5l4.8-16.5h2.1l4.7,16.5l4.3-16.5h2l-5.3,18.9h-2l-4.8-16.1l-4.9,16.1h-2.1L427.1,98.4z
			"/>
		<path class="st4" d="M483.1,112.8h-8.6l-1.6,4.5h-2l6.9-18.6h2.1l6.9,18.6h-2L483.1,112.8z M478.8,101l-3.7,10.2h7.5L478.8,101z"
			/>
		<path class="st4" d="M521.8,98.4v18.9H520l-10.4-15.9v15.9h-1.9V98.4h1.9l10.4,15.8V98.4H521.8z"/>
		<path class="st4" d="M544,98.4h1.9v18.9H544V98.4z"/>
		<path class="st4" d="M579,112.8h-8.6l-1.6,4.5h-2l6.9-18.6h2.1l6.9,18.6h-2L579,112.8z M574.7,101l-3.7,10.2h7.5L574.7,101z"/>
	</g>
</g>
</svg>
